<svg width="327" height="243" viewBox="0 0 327 243" fill="none" xmlns="http://www.w3.org/2000/svg">
<path d="M182.093 14.7702C168.292 5.44499 151.654 0 133.746 0C88.7808 0 51.8307 34.3255 47.6556 78.2095C19.391 92.4388 0 121.719 0 155.529C0 203.306 38.7197 242.037 86.4829 242.037C89.1271 242.037 91.7435 241.918 94.3272 241.686H233.302C235.681 241.882 238.087 241.982 240.517 241.982C242.947 241.982 245.353 241.882 247.732 241.686H249.664V241.504C293.127 236.934 327 200.161 327 155.475C327 123.337 309.479 95.2916 283.471 80.3754C274.732 41.851 240.289 13.0918 199.132 13.0918C193.299 13.0918 187.602 13.6693 182.093 14.7702Z" fill="#F7F8FC"/>
<path fill-rule="evenodd" clip-rule="evenodd" d="M47.7446 240.925C47.7446 240.951 47.7498 240.972 47.7498 240.998C47.7498 242.102 44.3301 243 40.1132 243C35.8963 243 32.4766 242.107 32.4766 240.998C32.4766 240.977 32.4766 240.956 32.4819 240.935C31.6689 238.324 26.4659 221.5 26.7229 221.452H53.2885L47.7446 240.925Z" fill="#1A1A1A"/>
<path fill-rule="evenodd" clip-rule="evenodd" d="M40.0083 220.081C47.3722 220.081 53.3567 220.785 53.3567 221.657C53.3567 222.53 47.3775 223.234 40.0083 223.234C32.6445 223.234 26.66 222.53 26.66 221.657C26.6652 220.785 32.6445 220.081 40.0083 220.081Z" fill="white"/>
<path fill-rule="evenodd" clip-rule="evenodd" d="M26.7911 221.658C26.7913 221.672 26.797 221.697 26.8284 221.733C26.8608 221.771 26.915 221.814 26.997 221.862C27.1609 221.956 27.4111 222.052 27.7453 222.145C28.4118 222.331 29.3821 222.5 30.5881 222.642C32.9982 222.926 36.3299 223.102 40.0084 223.102C43.6895 223.102 47.0212 222.926 49.4306 222.642C50.6362 222.5 51.6061 222.331 52.2721 222.145C52.6061 222.052 52.8561 221.956 53.0199 221.862C53.1018 221.814 53.156 221.771 53.1884 221.733C53.22 221.696 53.2256 221.672 53.2256 221.657C53.2256 221.643 53.22 221.619 53.1883 221.582C53.1559 221.544 53.1017 221.5 53.0197 221.453C52.8558 221.359 52.6056 221.263 52.2714 221.17C51.605 220.984 50.6346 220.815 49.4287 220.673C47.0186 220.388 43.6868 220.213 40.0084 220.213C36.3299 220.213 32.9995 220.388 30.59 220.673C29.3844 220.815 28.4142 220.984 27.7475 221.17C27.4132 221.263 27.1627 221.359 26.9984 221.453C26.9162 221.5 26.8617 221.544 26.829 221.582C26.7973 221.619 26.7913 221.643 26.7911 221.658ZM30.5594 220.412C32.9818 220.126 36.323 219.95 40.0084 219.95C43.6938 219.95 47.0362 220.126 49.4593 220.412C50.67 220.555 51.656 220.725 52.3418 220.917C52.6836 221.012 52.9585 221.115 53.1506 221.225C53.2467 221.281 53.3282 221.342 53.387 221.41C53.4466 221.48 53.4878 221.563 53.4878 221.657C53.4878 221.752 53.4467 221.835 53.3871 221.905C53.3284 221.973 53.2469 222.034 53.1509 222.089C52.9589 222.2 52.6842 222.303 52.3425 222.398C51.6571 222.59 50.6716 222.76 49.4613 222.903C47.0388 223.189 43.6964 223.365 40.0084 223.365C36.323 223.365 32.9805 223.189 30.5574 222.903C29.3467 222.76 28.3608 222.59 27.675 222.398C27.3331 222.303 27.0582 222.2 26.8661 222.089C26.77 222.034 26.6885 221.973 26.6297 221.905C26.5701 221.835 26.5289 221.752 26.5289 221.657V221.657H26.5289C26.5295 221.562 26.571 221.479 26.6308 221.41C26.6898 221.342 26.7715 221.281 26.8677 221.225C27.0602 221.115 27.3352 221.012 27.6772 220.917C28.3632 220.725 29.349 220.555 30.5594 220.412Z" fill="#181161"/>
<path fill-rule="evenodd" clip-rule="evenodd" d="M38.5398 217.549C38.0992 215.915 30.3472 200.945 28.5849 189.775C27.6513 183.874 29.1828 179.95 31.6741 178.184C34.1707 176.424 40.9629 176.403 43.5487 179.204C49.9475 186.134 42.6308 210.944 42.2164 213.429C41.928 215.147 41.5608 217.407 41.2671 219.12C41.1255 219.955 41.928 221.799 39.6727 221.799C38.6761 221.799 38.8072 218.557 38.5398 217.549Z" fill="#077168"/>
<path fill-rule="evenodd" clip-rule="evenodd" d="M27.4415 200.588C24.048 198.413 19.7314 198.413 17.7646 199.889C17.1509 200.346 11.8693 204.497 21.8714 211.212C23.8697 212.552 38.6709 221.547 38.823 221.495C39.4943 221.253 40.2653 221.573 40.365 221.027C40.6849 219.293 39.1954 215.247 38.3195 213.75C36.5519 210.734 32.3979 203.767 27.4415 200.588Z" fill="#077168"/>
<path fill-rule="evenodd" clip-rule="evenodd" d="M40.4017 221.5C39.2111 220.444 40.1605 216.697 40.3808 215.473C43.5539 197.998 53.4301 194.703 57.4373 195.192C59.9601 195.497 63.149 198.408 58.1611 205.511C55.3026 209.583 45.825 219.729 43.3809 220.701C42.1116 221.2 40.4017 221.5 40.4017 221.5Z" fill="#2CA197"/>
<path fill-rule="evenodd" clip-rule="evenodd" d="M20.6329 203.097C20.6333 203.097 20.6335 203.097 20.6338 203.098C20.6848 203.115 20.7313 203.14 20.7726 203.171L20.7905 203.182C20.8317 203.207 20.8973 203.246 20.986 203.299C21.1624 203.403 21.4229 203.556 21.7446 203.745C22.051 203.924 22.4103 204.134 22.8039 204.364C23.2393 204.619 23.7167 204.898 24.211 205.187C26.0841 206.283 28.1861 207.52 29.0054 208.035L29.0058 208.035C33.7839 211.046 37.2684 214.744 40.0395 220.814C40.16 221.078 40.0441 221.389 39.7807 221.51C39.5172 221.631 39.206 221.515 39.0855 221.251C36.402 215.373 33.0577 211.83 28.4476 208.925C27.6462 208.421 25.5628 207.195 23.6818 206.094C23.1903 205.807 22.7117 205.527 22.2751 205.272C21.8803 205.041 21.5198 204.83 21.2152 204.652C20.8935 204.463 20.6311 204.309 20.4522 204.203C20.3631 204.151 20.2929 204.109 20.2459 204.08C20.2236 204.067 20.2017 204.053 20.1847 204.042C20.1846 204.042 20.1844 204.042 20.1842 204.042C20.1797 204.039 20.1572 204.024 20.1342 204.006C20.128 204.001 20.109 203.986 20.0873 203.964C20.0755 203.952 20.047 203.918 20.0308 203.896C20.0049 203.856 19.9506 203.721 19.9358 203.625C19.9545 203.451 20.1395 203.177 20.2789 203.1C20.3574 203.078 20.4797 203.068 20.5211 203.071C20.5797 203.078 20.6247 203.094 20.6329 203.097ZM20.3119 204.097C20.3037 204.095 20.2954 204.092 20.2872 204.089C20.2874 204.089 20.2877 204.09 20.288 204.09C20.2909 204.091 20.2993 204.094 20.3119 204.097Z" fill="#E0E8FC"/>
<path fill-rule="evenodd" clip-rule="evenodd" d="M36.2992 182.842C36.2314 182.562 36.402 182.279 36.6817 182.209C36.8305 182.194 37.0673 182.261 37.1481 182.318C37.188 182.355 37.2427 182.423 37.26 182.45C37.2872 182.496 37.3011 182.536 37.3046 182.546L37.3048 182.546C37.3142 182.574 37.3195 182.596 37.321 182.602L37.321 182.603C37.3251 182.62 37.328 182.635 37.3295 182.644C37.333 182.663 37.3369 182.688 37.3409 182.714C37.3491 182.767 37.3602 182.844 37.3737 182.941C37.4009 183.136 37.4389 183.421 37.4858 183.782C37.5794 184.503 37.7085 185.532 37.8555 186.759C38.1496 189.215 38.5159 192.47 38.8154 195.668M36.2992 182.842C36.3004 182.849 36.302 182.86 36.3041 182.873C36.3112 182.919 36.3214 182.99 36.3348 183.086C36.3613 183.277 36.3989 183.558 36.4455 183.917C36.5387 184.635 36.6673 185.66 36.814 186.885C37.1074 189.334 37.4727 192.581 37.7711 195.767L37.7711 195.767C38.2224 200.55 38.5773 204.938 38.8891 208.792C39.2925 213.78 39.6235 217.871 39.997 220.763C40.0341 221.051 40.2971 221.254 40.5844 221.217C40.8717 221.18 41.0744 220.916 41.0373 220.628C40.6661 217.754 40.339 213.708 39.9383 208.752C39.6269 204.899 39.271 200.497 38.8155 195.668" fill="#E0E8FC"/>
<path fill-rule="evenodd" clip-rule="evenodd" d="M56.3952 199.876C56.5485 199.763 56.6346 199.57 56.6018 199.369C56.5551 199.082 56.2855 198.888 55.9996 198.935C55.8917 198.952 55.8168 199 55.7973 199.012L55.797 199.012C55.7663 199.031 55.7424 199.05 55.7283 199.062C55.6992 199.087 55.6735 199.112 55.6548 199.131C55.6154 199.172 55.57 199.223 55.5221 199.28C55.4247 199.394 55.2936 199.556 55.1354 199.757C54.8178 200.16 54.3776 200.734 53.8513 201.429C52.7981 202.82 51.393 204.707 49.9194 206.701C46.973 210.687 43.7458 215.109 42.502 216.866L42.5012 216.868C42.4751 216.905 42.4489 216.942 42.4227 216.979C41.7191 217.977 40.9577 219.058 40.6901 220.387C40.6328 220.672 40.8166 220.949 41.1006 221.006C41.3845 221.063 41.6611 220.879 41.7184 220.595C41.9416 219.486 42.5882 218.568 43.3313 217.512L43.3577 217.474C43.3578 217.474 43.358 217.474 43.3582 217.474C44.5956 215.726 47.8166 211.311 50.7624 207.326C52.2352 205.334 53.6375 203.451 54.6871 202.064C55.2123 201.37 55.6474 200.803 55.9584 200.409C56.1144 200.211 56.2359 200.061 56.3204 199.961C56.3543 199.922 56.3788 199.894 56.3952 199.876Z" fill="#E0E8FC"/>
<path fill-rule="evenodd" clip-rule="evenodd" d="M209.781 242.346H125.421C120.47 242.346 116.453 238.321 116.453 233.361V50.6622C116.453 45.7023 120.47 41.6776 125.421 41.6776H209.781C214.732 41.6776 218.75 45.7023 218.75 50.6622V233.361C218.75 238.327 214.737 242.346 209.781 242.346Z" fill="#958EEB"/>
<path fill-rule="evenodd" clip-rule="evenodd" d="M212.655 64.9484C212.655 60.5349 209.146 56.9568 204.819 56.9568C187.668 56.9568 146.973 56.9568 129.822 56.9568C125.495 56.9568 121.986 60.5349 121.986 64.9484V228.365C121.986 232.778 125.495 236.356 129.822 236.356H204.819C209.146 236.356 212.655 232.778 212.655 228.365C212.655 198.642 212.655 94.6714 212.655 64.9484Z" fill="white"/>
<path d="M174.278 72.509H128.343V74.1694H174.278V72.509Z" fill="#958EEB"/>
<path d="M174.278 136.61H128.343V138.271H174.278V136.61Z" fill="#958EEB"/>
<path d="M174.278 203.339H128.343V204.999H174.278V203.339Z" fill="#958EEB"/>
<path d="M174.299 79.5293H128.364V81.1897H174.299V79.5293Z" fill="#958EEB"/>
<path d="M174.299 143.631H128.364V145.291H174.299V143.631Z" fill="#958EEB"/>
<path d="M174.299 210.359H128.364V212.019H174.299V210.359Z" fill="#958EEB"/>
<path d="M174.351 86.3013H128.416V87.9616H174.351V86.3013Z" fill="#958EEB"/>
<path d="M174.351 150.403H128.416V152.063H174.351V150.403Z" fill="#958EEB"/>
<path d="M174.351 217.131H128.416V218.791H174.351V217.131Z" fill="#958EEB"/>
<path d="M174.619 92.8065H128.684V94.4668H174.619V92.8065Z" fill="#958EEB"/>
<path d="M174.619 156.908H128.684V158.568H174.619V156.908Z" fill="#958EEB"/>
<path d="M174.619 223.636H128.684V225.296H174.619V223.636Z" fill="#958EEB"/>
<path d="M204.347 168.829H158.412V170.49H204.347V168.829Z" fill="#958EEB"/>
<path d="M204.368 175.85H158.433V177.51H204.368V175.85Z" fill="#958EEB"/>
<path d="M204.42 182.621H158.485V184.282H204.42V182.621Z" fill="#958EEB"/>
<path d="M204.688 189.127H158.753V190.787H204.688V189.127Z" fill="#958EEB"/>
<path d="M204.347 104.034H158.412V105.695H204.347V104.034Z" fill="#958EEB"/>
<path d="M204.368 111.055H158.433V112.715H204.368V111.055Z" fill="#958EEB"/>
<path d="M204.42 117.826H158.485V119.487H204.42V117.826Z" fill="#958EEB"/>
<path d="M204.688 124.332H158.753V125.992H204.688V124.332Z" fill="#958EEB"/>
<path fill-rule="evenodd" clip-rule="evenodd" d="M177.01 49.4386C177.01 49.0025 176.659 48.6558 176.229 48.6558C173.103 48.6558 161.533 48.6558 158.407 48.6558C157.971 48.6558 157.625 49.0078 157.625 49.4386C157.625 49.7591 157.625 50.1217 157.625 50.4422C157.625 50.8783 157.977 51.2251 158.407 51.2251C161.533 51.2251 173.103 51.2251 176.229 51.2251C176.659 51.2251 177.01 50.873 177.01 50.4422C177.01 50.1269 177.01 49.7591 177.01 49.4386Z" fill="white"/>
<path fill-rule="evenodd" clip-rule="evenodd" d="M145.992 128.183L147.037 114.225C147.037 114.225 135.032 113.365 129.052 112.982C129.017 112.969 128.11 126.232 128.11 126.232L145.992 128.183Z" fill="#E0E8FC"/>
<path fill-rule="evenodd" clip-rule="evenodd" d="M146.832 114.184L151.634 110.964L150.607 124.66L145.778 128.249" fill="#958EEB"/>
<path fill-rule="evenodd" clip-rule="evenodd" d="M127.976 112.964C127.941 112.835 147.392 114.607 147.392 114.607L139.527 101.932L127.976 112.964Z" fill="#958EEB"/>
<path fill-rule="evenodd" clip-rule="evenodd" d="M139.541 101.958L152.483 111.134L147.352 114.599L139.541 101.958Z" fill="#8DA6E7"/>
<path fill-rule="evenodd" clip-rule="evenodd" d="M129.946 126.5L130.631 116.688L136.451 117.325L135.846 127.106L129.946 126.5Z" fill="#958EEB"/>
<path fill-rule="evenodd" clip-rule="evenodd" d="M138.429 117.659L144.182 118.255L143.88 123.204L138.082 122.625L138.429 117.659Z" fill="#958EEB"/>
<path fill-rule="evenodd" clip-rule="evenodd" d="M147.179 118.126L150.785 116.434L150.389 120.816L146.748 123.092L147.179 118.126Z" fill="#E0E8FC"/>
<path fill-rule="evenodd" clip-rule="evenodd" d="M198.966 160.234L200.01 146.275C200.01 146.275 188.006 145.416 182.026 145.033C181.991 145.019 181.084 158.283 181.084 158.283L198.966 160.234Z" fill="#E0E8FC"/>
<path fill-rule="evenodd" clip-rule="evenodd" d="M199.806 146.235L204.608 143.014L203.58 156.71L198.752 160.3" fill="#958EEB"/>
<path fill-rule="evenodd" clip-rule="evenodd" d="M180.95 145.015C180.914 144.885 200.366 146.658 200.366 146.658L192.501 133.982L180.95 145.015Z" fill="#2FAC7D"/>
<path fill-rule="evenodd" clip-rule="evenodd" d="M192.514 134.009L205.457 143.184L200.326 146.649L192.514 134.009Z" fill="#23A072"/>
<path fill-rule="evenodd" clip-rule="evenodd" d="M182.92 158.55L183.604 148.738L189.424 149.375L188.82 159.156L182.92 158.55Z" fill="#958EEB"/>
<path fill-rule="evenodd" clip-rule="evenodd" d="M191.403 149.709L197.156 150.306L196.854 155.254L191.056 154.675L191.403 149.709Z" fill="#958EEB"/>
<path fill-rule="evenodd" clip-rule="evenodd" d="M200.153 150.177L203.758 148.484L203.363 152.867L199.721 155.143L200.153 150.177Z" fill="#E0E8FC"/>
<path fill-rule="evenodd" clip-rule="evenodd" d="M145.992 192.284L147.037 178.326C147.037 178.326 135.032 177.466 129.052 177.083C129.017 177.07 128.11 190.333 128.11 190.333L145.992 192.284Z" fill="#E0E8FC"/>
<path fill-rule="evenodd" clip-rule="evenodd" d="M146.832 178.286L151.634 175.065L150.607 188.761L145.778 192.351" fill="#958EEB"/>
<path fill-rule="evenodd" clip-rule="evenodd" d="M127.976 177.065C127.941 176.936 147.392 178.709 147.392 178.709L139.527 166.033L127.976 177.065Z" fill="#958EEB"/>
<path fill-rule="evenodd" clip-rule="evenodd" d="M139.541 166.059L152.483 175.235L147.352 178.7L139.541 166.059Z" fill="#8DA6E7"/>
<path fill-rule="evenodd" clip-rule="evenodd" d="M129.946 190.601L130.631 180.789L136.45 181.426L135.846 191.206L129.946 190.601Z" fill="#958EEB"/>
<path fill-rule="evenodd" clip-rule="evenodd" d="M138.429 181.759L144.182 182.356L143.88 187.305L138.082 186.726L138.429 181.759Z" fill="#958EEB"/>
<path fill-rule="evenodd" clip-rule="evenodd" d="M147.179 182.228L150.785 180.535L150.389 184.918L146.748 187.194L147.179 182.228Z" fill="#E0E8FC"/>
<path fill-rule="evenodd" clip-rule="evenodd" d="M196.42 225.23L197.465 211.271C197.465 211.271 185.461 210.412 179.481 210.028C179.445 210.015 178.538 223.279 178.538 223.279L196.42 225.23Z" fill="#E0E8FC"/>
<path fill-rule="evenodd" clip-rule="evenodd" d="M197.26 211.231L202.062 208.011L201.035 221.707L196.207 225.297" fill="#958EEB"/>
<path fill-rule="evenodd" clip-rule="evenodd" d="M178.405 210.011C178.369 209.881 197.821 211.654 197.821 211.654L189.956 198.978L178.405 210.011Z" fill="#958EEB"/>
<path fill-rule="evenodd" clip-rule="evenodd" d="M189.969 199.005L202.911 208.18L197.781 211.645L189.969 199.005Z" fill="#8DA6E7"/>
<path fill-rule="evenodd" clip-rule="evenodd" d="M180.374 223.546L181.059 213.734L186.879 214.371L186.274 224.152L180.374 223.546Z" fill="#958EEB"/>
<path fill-rule="evenodd" clip-rule="evenodd" d="M188.857 214.705L194.611 215.302L194.308 220.25L188.511 219.671L188.857 214.705Z" fill="#958EEB"/>
<path fill-rule="evenodd" clip-rule="evenodd" d="M197.607 215.173L201.213 213.481L200.817 217.863L197.176 220.139L197.607 215.173Z" fill="#E0E8FC"/>
<path fill-rule="evenodd" clip-rule="evenodd" d="M199.468 92.7397L200.513 78.7811C200.513 78.7811 188.509 77.9215 182.529 77.5385C182.493 77.5251 181.586 90.7889 181.586 90.7889L199.468 92.7397Z" fill="#E0E8FC"/>
<path fill-rule="evenodd" clip-rule="evenodd" d="M200.308 78.7411L205.11 75.5209L204.083 89.2167L199.255 92.8066" fill="#958EEB"/>
<path fill-rule="evenodd" clip-rule="evenodd" d="M181.453 77.5206C181.417 77.3915 200.869 79.1641 200.869 79.1641L193.004 66.4883L181.453 77.5206Z" fill="#958EEB"/>
<path fill-rule="evenodd" clip-rule="evenodd" d="M193.017 66.515L205.96 75.69L200.829 79.1552L193.017 66.515Z" fill="#8DA6E7"/>
<path fill-rule="evenodd" clip-rule="evenodd" d="M183.422 91.0561L184.107 81.2441L189.927 81.8811L189.322 91.6619L183.422 91.0561Z" fill="#958EEB"/>
<path fill-rule="evenodd" clip-rule="evenodd" d="M191.906 82.2149L197.659 82.8118L197.356 87.7601L191.559 87.1811L191.906 82.2149Z" fill="#958EEB"/>
<path fill-rule="evenodd" clip-rule="evenodd" d="M200.655 82.6832L204.261 80.9907L203.865 85.3733L200.224 87.6493L200.655 82.6832Z" fill="#E0E8FC"/>
<path fill-rule="evenodd" clip-rule="evenodd" d="M103.614 155.543C97.2463 138.31 89.8929 122.19 89.2426 121.712C87.8159 120.661 69.0758 120.85 69.0286 120.892C68.588 121.27 61.8378 126.771 59.1262 137.684C58.9374 138.12 58.2975 141.446 58.2136 142.975C58.2136 149.874 63.8886 176.087 63.8886 176.087C64.5127 183.422 64.8117 192.102 65.2208 194.619C67.3083 207.429 70.707 223.795 70.707 223.795L79.6076 223.186C79.6076 223.186 79.5342 205.511 80.1374 190.069C80.216 188.009 81.1654 183.396 81.2178 181.326C81.2965 178.42 81.029 151.009 81.1024 151.23C82.2563 154.598 85.3561 165.453 88.1988 170.586C93.942 180.968 98.2901 186.601 98.3687 189.759C98.4422 192.675 95.7463 190.19 92.0014 197.85C87.5327 207.003 82.807 218.93 82.807 218.93L89.5415 222.944C89.5415 222.944 110.92 199.778 113.353 190.473C114.145 187.457 109.294 170.928 103.614 155.543Z" fill="#1A1A1A"/>
<path fill-rule="evenodd" clip-rule="evenodd" d="M92.2742 239.626C90.2601 237.987 79.8227 232.811 79.8227 232.811L73.0672 233.037C73.0672 233.037 70.8748 238.439 70.7804 239.873C70.7227 240.724 71.6826 241.481 72.5113 241.659C74.6827 242.127 83.8088 242.684 83.8088 242.684C83.8088 242.684 90.4804 243.173 91.8913 242.663C92.8721 242.311 93.0399 240.251 92.2742 239.626Z" fill="#1A1A1A"/>
<path fill-rule="evenodd" clip-rule="evenodd" d="M95.4683 239.915C94.0364 237.493 85.1777 227.925 85.1777 227.925L79.959 224.888C79.959 224.888 76.6442 229.175 76.1355 230.51C75.8312 231.298 76.2246 232.354 76.8855 232.88C78.6163 234.272 86.5362 238.859 86.5362 238.859C86.5362 238.859 92.2898 242.285 93.7794 242.458C94.8022 242.584 95.9718 240.766 95.4683 239.915Z" fill="#1A1A1A"/>
<path fill-rule="evenodd" clip-rule="evenodd" d="M92.3737 242.301C92.3003 242.306 92.2374 242.348 92.1954 242.411C92.1272 242.521 92.1587 242.674 92.2741 242.742C92.3475 242.789 92.4629 242.81 92.5888 242.737C92.6884 242.679 92.8353 242.532 92.9349 242.269C93.1762 241.618 93.1552 240.115 90.7321 238.06C87.8264 235.591 83.1374 234.099 79.5919 232.675C79.4712 232.628 79.3296 232.685 79.2824 232.806C79.2352 232.932 79.2929 233.069 79.4188 233.122C82.9224 234.524 87.5589 235.985 90.4279 238.428C92.573 240.251 92.7042 241.528 92.4891 242.106C92.4577 242.185 92.4 242.264 92.3737 242.301Z" fill="white"/>
<path fill-rule="evenodd" clip-rule="evenodd" d="M89.0695 222.807C89.1849 222.723 85.1883 227.946 85.1883 227.946L79.9853 224.893L83.3106 219.408" fill="#F9D1AD"/>
<path fill-rule="evenodd" clip-rule="evenodd" d="M78.8313 223.344C78.8785 223.885 79.3296 232.78 79.3296 232.78L73.0881 233.137L71.6563 223.853" fill="#F9D1AD"/>
<path fill-rule="evenodd" clip-rule="evenodd" d="M78.8943 224.105L71.929 225.513L71.672 223.874L78.8366 223.364" fill="#C2956D"/>
<path fill-rule="evenodd" clip-rule="evenodd" d="M88.718 223.275L82.6864 220.454L83.3053 219.366L89.1009 222.818" fill="#C2956D"/>
<path fill-rule="evenodd" clip-rule="evenodd" d="M84.5641 162.153C83.4784 158.448 81.0814 151.271 81.0867 151.245C81.1286 151.056 81.5115 147.704 82.1042 148.266C83.4417 149.537 84.3071 151.586 85.1515 153.184C87.8107 158.223 89.3055 163.908 90.9314 169.34C91.5136 171.29 92.4944 175.225 92.4944 175.225L93.1028 179.066C93.1028 179.066 90.2653 174.878 87.9733 170.475C86.2634 167.207 85.0361 163.75 84.5641 162.153Z" fill="#1A1A1A"/>
<path fill-rule="evenodd" clip-rule="evenodd" d="M80.987 128.064C81.008 128.027 81.0132 127.985 80.9975 127.949C80.9713 127.891 80.945 127.859 80.9346 127.854C80.8926 127.817 80.8454 127.817 80.8139 127.828C80.7825 127.838 80.7248 127.865 80.7143 127.949C80.7038 128.027 80.8034 128.532 80.8244 128.737C80.8716 129.173 80.9136 129.609 80.9555 130.045C81.0919 131.506 81.1706 132.966 81.2125 134.432C81.3384 138.504 81.0657 142.576 80.8874 146.643C80.8821 146.717 80.9398 146.774 81.0132 146.78C81.0867 146.785 81.1496 146.727 81.1496 146.654C81.3332 142.582 81.6059 138.499 81.4748 134.422C81.4276 132.951 81.3489 131.485 81.2125 130.019C81.1706 129.583 81.1286 129.141 81.0814 128.705C81.0657 128.569 81.0132 128.285 80.987 128.101C80.987 128.091 80.987 128.08 80.987 128.064Z" fill="white"/>
<path fill-rule="evenodd" clip-rule="evenodd" d="M100.76 192.207C100.75 192.196 100.734 192.17 100.729 192.17C100.682 192.118 100.635 192.065 100.582 192.018C100.42 191.865 100.241 191.724 100.052 191.597C99.7429 191.387 99.4282 191.203 99.0611 191.109C98.7988 191.04 98.5209 191.046 98.2639 190.983C98.1957 190.967 98.1485 190.893 98.1695 190.825C98.1852 190.757 98.2586 190.709 98.3268 190.73C98.5838 190.794 98.8618 190.788 99.124 190.857C99.5227 190.956 99.8636 191.151 100.199 191.382C100.399 191.519 100.582 191.666 100.76 191.829C100.818 191.881 100.876 191.939 100.928 192.002C100.934 192.007 100.97 192.055 100.986 192.081C101.002 192.102 101.007 192.123 101.007 192.133C101.017 192.191 100.996 192.228 100.975 192.249C100.949 192.275 100.918 192.296 100.865 192.291C100.818 192.28 100.776 192.249 100.76 192.207ZM100.834 192.033C100.85 192.028 100.871 192.023 100.892 192.028C100.871 192.023 100.85 192.028 100.834 192.033Z" fill="white"/>
<path fill-rule="evenodd" clip-rule="evenodd" d="M98.6573 190.053C98.6993 190.026 98.7517 190.005 98.7989 189.979C98.972 189.9 99.1608 189.842 99.3444 189.795C99.9056 189.648 100.483 189.606 101.059 189.664C101.133 189.669 101.196 189.616 101.206 189.548C101.212 189.475 101.159 189.412 101.091 189.406C100.483 189.338 99.8689 189.385 99.2762 189.543C99.0769 189.595 98.8776 189.659 98.6888 189.743C98.6311 189.769 98.5681 189.8 98.5104 189.832C98.5052 189.832 98.458 189.874 98.4423 189.884C98.4265 189.895 98.416 189.905 98.4003 189.916C98.3531 189.974 98.3583 190.053 98.416 190.1C98.437 190.116 98.4895 190.152 98.5629 190.116C98.5839 190.116 98.6416 190.068 98.6573 190.053Z" fill="white"/>
<path fill-rule="evenodd" clip-rule="evenodd" d="M64.9009 187.573C64.8746 187.578 64.8432 187.578 64.8117 187.562C64.7488 187.531 64.7225 187.452 64.754 187.389C64.7645 187.373 64.8012 187.316 64.8904 187.31C65.0005 187.31 65.5198 187.384 65.567 187.389C66.338 187.431 67.109 187.373 67.88 187.331C68.1894 187.316 68.4989 187.3 68.8031 187.274C68.8975 187.268 68.9971 187.258 69.0915 187.247C69.1073 187.247 69.1492 187.247 69.1807 187.247C69.2069 187.242 69.2332 187.242 69.2594 187.247C69.3695 187.284 69.359 187.373 69.3538 187.394C69.3486 187.426 69.3328 187.478 69.2646 187.499C69.2541 187.504 69.2384 187.51 69.2122 187.51C69.186 187.51 69.1388 187.504 69.1178 187.51C69.0181 187.52 68.9237 187.525 68.8241 187.536C68.5146 187.557 68.2052 187.573 67.8957 187.594C67.1142 187.636 66.3327 187.693 65.5512 187.651C65.5145 187.646 64.9638 187.583 64.9009 187.573ZM64.9848 187.515C64.9795 187.525 64.969 187.536 64.9585 187.541C64.969 187.536 64.9795 187.525 64.9848 187.515ZM69.1492 187.478C69.1545 187.483 69.165 187.489 69.1702 187.489C69.1597 187.489 69.1545 187.483 69.1492 187.478Z" fill="white"/>
<path fill-rule="evenodd" clip-rule="evenodd" d="M79.2929 232.265L72.8784 231.818L73.041 233.158L79.3559 232.816" fill="#C2956D"/>
<path fill-rule="evenodd" clip-rule="evenodd" d="M85.183 227.935L85.5396 227.525L80.4993 224.021L79.9433 224.904L85.183 227.935Z" fill="#C2956D"/>
<path fill-rule="evenodd" clip-rule="evenodd" d="M54.7309 121.58C56.7292 122.993 63.4427 128.867 65.483 127.228C66.6736 126.272 68.352 126.235 69.8625 126.156C70.4971 126.125 72.4955 125.899 72.5951 126.576C72.6476 126.918 72.7472 127.265 72.4063 127.491C72.0444 127.732 71.2472 127.848 71.2891 127.895C71.5147 128.153 75.3015 127.879 76.4869 127.932C76.9904 127.953 77.7719 127.879 78.1547 128.295C78.4275 128.594 78.4694 129.119 77.4781 129.288C75.7526 129.582 72.3591 129.419 72.1598 129.577C71.9919 129.708 77.6145 129.818 77.8243 129.855C78.2282 129.923 78.632 130.023 78.8313 130.438C79.0726 130.932 78.5743 131.337 78.1705 131.426C78.139 131.431 72.207 131.179 72.207 131.205C72.2332 131.458 75.9466 131.547 77.7561 131.862C78.9152 132.067 78.4904 132.834 78.3173 133.092C77.8558 133.801 72.6004 132.829 72.0549 133.228C71.8661 133.365 74.3102 133.407 75.5428 133.596C76.8383 133.801 76.3557 134.747 76.0253 134.91C74.9396 135.446 71.4255 134.883 70.2873 134.752C67.8799 134.474 67.4498 134.431 65.0949 133.822C63.7259 133.465 56.2572 129.582 54.5368 128.578C52.0612 127.133 49.5489 125.688 47.0156 124.359C46.2813 123.97 45.9614 123.555 45.7935 122.625C45.3949 120.387 47.9859 118.606 49.9737 119.042C51.7308 119.425 53.2938 120.555 54.7309 121.58Z" fill="#F9D1AD"/>
<path fill-rule="evenodd" clip-rule="evenodd" d="M139.73 58.5135C139.84 58.4978 142.421 60.5942 142.337 60.6625C142.237 60.7413 134.936 66.0533 128.805 69.5211C125.076 71.628 121.347 72.6158 121.179 72.5895C120.188 72.4266 119.716 70.4458 119.291 69.6577C118.882 68.8958 116.668 67.7136 116.836 66.8257C117.125 65.3124 134.695 59.1703 138.797 57.8935C140.538 57.3523 137.9 57.82 139.73 58.5135Z" fill="#F9D1AD"/>
<path fill-rule="evenodd" clip-rule="evenodd" d="M139.945 61.4877C139.966 61.4719 142.227 61.5297 143.328 61.288C144.702 60.9833 146.669 59.985 148.185 59.6697C149.575 59.3807 151.259 59.7275 152.439 59.4018C152.696 59.3282 153.094 58.9026 152.937 58.5296C152.57 57.6679 148.589 57.7835 148.626 57.568C148.668 57.3316 152.879 56.4384 153.949 55.7553C154.238 55.5714 154.673 54.4103 153.503 54.2001C152.402 54.0057 148.447 55.4874 148.468 55.1564C148.484 54.8726 149.276 54.5994 149.47 54.5101C150.582 53.9794 151.589 53.1755 152.748 52.7394C154.306 52.151 153.53 50.932 152.885 50.9583C151.72 51.0055 147.844 53.144 147.624 52.792C147.477 52.5608 150.461 50.6062 151.054 49.7918C151.232 49.5449 151.232 48.8093 150.64 48.72C148.72 48.4257 146.113 51.8147 144.902 52.5398C143.528 53.3594 145.306 50.9845 144.288 49.7603C144.015 49.4293 143.459 49.7813 143.223 50.1018C142.463 51.1474 142.048 52.1037 141.687 52.6659C141.398 53.1177 141.015 53.6799 140.732 54.1318C139.804 55.6082 136.777 59.2073 138.991 60.7836C139.284 60.9885 139.604 61.3826 139.945 61.4877Z" fill="#F9D1AD"/>
<path fill-rule="evenodd" clip-rule="evenodd" d="M123.14 72.0334C121.876 68.4448 120.371 64.5199 120.371 64.5199C120.371 64.5199 94.2042 72.9529 87.4959 74.897C84.9469 75.6326 85.4924 77.0092 84.9993 78.9269C84.522 80.7712 85.6287 85.873 85.8018 88.1008C85.9591 90.0921 86.1794 98.4043 85.6864 98.4831C85.3193 98.5409 78.7579 89.0465 77.2526 85.2898C74.8399 79.2632 73.6441 76.9934 73.0986 77.172C72.3066 77.4295 63.4269 81.244 59.3936 85.4474C54.3008 90.7594 41.5661 107.652 38.5345 113.82C37.3596 116.205 38.2565 118.018 38.6709 118.502C41.2356 121.528 47.367 124.712 47.367 124.712C47.367 124.712 54.6102 120.561 54.542 120.031C54.2955 118.065 48.6887 116.19 49.8163 113.605C51.6049 109.506 62.3937 99.4656 62.7818 100.527C64.0301 103.937 63.6158 112.365 64.1507 115.113C64.6438 117.656 66.4585 120.834 68.6404 121.428C68.9498 121.512 75.9046 123.356 80.8611 123.309C86.8298 123.257 90.1236 122.621 90.5537 122.048C93.4646 118.192 90.9366 110.946 92.4524 108.272C98.1431 98.2309 93.7898 97.7212 93.2391 93.8331C92.3422 87.5648 92.3108 89.2777 92.6255 86.0569C92.9244 82.8518 118.488 75.5853 123.14 72.0334Z" fill="#E0E8FC"/>
<path fill-rule="evenodd" clip-rule="evenodd" d="M76.2298 102.823C75.6319 102.734 73.8171 103.422 72.6633 103.096C71.4622 102.755 69.1439 100.663 69.0128 100.768C68.9499 100.816 65.6403 101.015 66.0966 101.814C66.2487 102.077 68.1316 104.11 70.2611 104.53C72.8888 105.04 75.8732 103.9 76.2351 103.653C76.4763 103.474 76.4711 102.86 76.2298 102.823Z" fill="#958EEB"/>
<path fill-rule="evenodd" clip-rule="evenodd" d="M62.8658 99.8746C62.9235 99.7747 65.0372 100.043 65.1683 100.058C66.469 100.2 67.8485 100.342 69.0705 100.852C69.4691 101.02 70.0776 101.283 70.2402 101.729C70.4814 102.386 69.3328 102.57 68.9342 102.607C67.6596 102.728 65.4515 102.659 65.5774 104.567C65.6771 106.085 67.9114 105.502 68.3467 106.542C68.4674 106.836 68.1422 107.194 67.9743 107.399C67.4079 108.097 66.4638 108.744 67.3974 109.569C68.3048 110.372 69.6999 110.609 70.7489 111.171C71.0898 111.355 71.735 111.691 71.6563 112.175C71.5566 112.758 70.6283 112.958 70.1615 113.031C68.8974 113.225 64.2137 114.649 63.9462 113.231C63.5948 111.344 63.8466 110.057 63.7679 108.98C63.5266 105.507 63.0179 102.318 62.8658 99.8746Z" fill="#958EEB"/>
<path fill-rule="evenodd" clip-rule="evenodd" d="M68.5513 100.784C68.3468 100.831 67.9377 100.6 67.7698 100.51C66.9412 100.064 66.6317 99.4385 66.1597 98.6714C65.4254 97.4735 64.2925 97.2528 62.8606 97.3684C61.5231 97.4787 60.4951 98.7975 59.7189 99.8484C59.4199 100.258 58.5283 102.591 59.0108 103.059C59.2626 103.306 60.878 101.488 60.878 101.488C60.878 101.488 62.7242 100.274 63.5215 100.358C63.9725 100.405 62.976 100.878 63.2435 101.178C63.6998 101.682 64.3082 101.819 64.9638 101.845" fill="#958EEB"/>
<path fill-rule="evenodd" clip-rule="evenodd" d="M86.0274 100.763C86.0326 100.763 86.0326 100.757 86.0377 100.757L86.0274 100.763Z" fill="#FFF3FA"/>
<path fill-rule="evenodd" clip-rule="evenodd" d="M86.0632 101.023C86.0509 101.024 86.039 101.025 86.0277 101.025C85.8827 101.025 85.7652 100.907 85.7652 100.763C85.7652 100.665 85.8184 100.58 85.8974 100.535C85.8982 100.534 85.8991 100.534 85.8999 100.533C85.909 100.528 85.9191 100.522 85.9303 100.517C85.9415 100.512 85.9533 100.508 85.9656 100.505C85.978 100.501 85.9904 100.499 86.0027 100.497C86.015 100.495 86.0269 100.495 86.0382 100.495C86.1832 100.495 86.3007 100.612 86.3007 100.757C86.3007 100.855 86.2475 100.94 86.1685 100.985C86.1676 100.986 86.1668 100.986 86.1659 100.987C86.1569 100.992 86.1467 100.998 86.1356 101.002C86.1244 101.007 86.1126 101.012 86.1002 101.015C86.0879 101.019 86.0755 101.021 86.0632 101.023ZM86.2187 100.945C86.2189 100.945 86.2187 100.945 86.2183 100.946L86.2187 100.945ZM85.8472 100.574C85.847 100.575 85.8472 100.574 85.8476 100.574L85.8472 100.574Z" fill="#1A1A1A"/>
<path fill-rule="evenodd" clip-rule="evenodd" d="M85.7599 105.933C85.7599 105.788 85.8775 105.67 86.0224 105.67H86.0379C86.1829 105.67 86.3007 105.788 86.3007 105.933C86.3007 106.078 86.1832 106.195 86.0382 106.195H86.0227C85.8777 106.195 85.7599 106.078 85.7599 105.933Z" fill="#1A1A1A"/>
<path fill-rule="evenodd" clip-rule="evenodd" d="M85.3613 112.064C85.3613 111.919 85.4788 111.802 85.6238 111.802H85.629C85.774 111.802 85.8915 111.919 85.8915 112.064C85.8915 112.209 85.774 112.327 85.629 112.327H85.6238C85.4788 112.327 85.3613 112.209 85.3613 112.064Z" fill="#1A1A1A"/>
<path fill-rule="evenodd" clip-rule="evenodd" d="M85.3248 117.728C85.3277 117.728 85.3252 117.728 85.319 117.728C85.321 117.728 85.3229 117.728 85.3248 117.728ZM85.2499 117.717C85.3429 117.751 85.4515 117.731 85.5262 117.656C85.6287 117.554 85.6287 117.388 85.5262 117.285C85.4424 117.202 85.3415 117.203 85.3262 117.203C85.3256 117.203 85.3252 117.203 85.3248 117.203C85.1799 117.203 85.0623 117.321 85.0623 117.466C85.0623 117.585 85.1414 117.685 85.2499 117.717Z" fill="#1A1A1A"/>
<path fill-rule="evenodd" clip-rule="evenodd" d="M85.3246 117.466C85.33 117.466 85.3355 117.466 85.3409 117.471L85.3246 117.466Z" fill="#FFF3FA"/>
<path d="M92.2584 87.8066C92.2374 87.67 92.3685 86.4352 92.4892 86.0044C92.5836 85.6734 93.0137 85.1532 93.213 84.9641C93.685 84.507 94.7707 83.8765 95.5942 83.4246C97.2778 82.5051 100.671 81.0549 102.701 80.188L103.283 79.9411C105.093 79.1634 107.894 78.1862 110.605 77.2351C113.238 76.3104 115.965 75.3594 117.728 74.608C118.714 74.1877 123.036 71.9389 123.083 71.9179L123.203 72.1491C123.025 72.2437 118.829 74.4241 117.833 74.8497C116.06 75.6011 113.333 76.5574 110.694 77.4821C107.988 78.4278 105.192 79.4104 103.393 80.1827L102.811 80.4297C100.787 81.2966 97.4037 82.7415 95.7305 83.6558C94.5871 84.281 93.7584 84.8117 93.407 85.1532C93.1867 85.3634 92.8248 85.8258 92.7567 86.078C92.6675 86.3932 92.4105 87.4493 92.4629 87.8066H92.2584Z" fill="#181161"/>
<path fill-rule="evenodd" clip-rule="evenodd" d="M65.4881 56.7482C65.517 56.7482 65.5404 56.7716 65.5404 56.8005V56.811C65.5404 56.8399 65.517 56.8633 65.4881 56.8633C65.4592 56.8633 65.4358 56.8399 65.4358 56.811V56.8005C65.4358 56.7716 65.4592 56.7482 65.4881 56.7482Z" fill="#1A1A1A"/>
<path fill-rule="evenodd" clip-rule="evenodd" d="M89.0432 77.9857C89.1219 77.9279 90.302 74.9855 90.2758 74.996C90.0712 75.0591 89.8719 75.1326 89.6726 75.2009C89.1166 75.3901 88.5659 75.574 88.0047 75.7474C86.3473 76.2518 85.5658 75.9838 83.9084 75.1064C81.9468 74.066 81.307 72.0064 80.431 70.0571C80.1531 69.4371 79.0674 68.2707 78.8313 67.6296C78.8156 67.5824 77.4991 68.05 77.4677 68.0447C77.2736 68.0237 76.6809 68.5334 76.5026 68.6174C75.6372 69.0378 74.7141 69.3373 73.791 69.6105C73.0147 69.8364 72.2227 70.0256 71.436 70.2252C71.1423 70.2988 70.6125 70.3723 70.4762 70.7033C70.1982 71.3601 70.7856 72.4372 71.0269 73.0205C71.8294 74.9487 73.1091 76.7667 73.707 78.7738C74.2997 80.7494 72.506 81.6846 72.9518 83.7495C73.256 85.1629 73.3714 83.6077 73.9955 84.8949C75.6896 88.41 76.6127 88.0685 79.466 90.7481C81.2388 92.4084 83.6042 96.9271 85.7966 99.097C86.2267 99.5226 88.0257 79.0365 88.4191 78.5741L89.0432 77.9857Z" fill="#FFF3FA"/>
<path fill-rule="evenodd" clip-rule="evenodd" d="M81.9469 73.9826C81.9679 73.951 80.6356 74.8495 78.3489 74.0929C77.0901 73.6726 73.6756 69.9684 73.6599 69.9473C69.0811 63.264 73.0567 75.417 74.7194 76.5151C75.5481 77.0615 76.403 82.032 76.403 82.032C76.4449 89.2986 85.7862 99.0871 85.7862 99.0871C85.7862 99.0871 87.6743 88.0638 88.1359 82.8254C88.4873 78.8795 83.5518 77.382 83.0903 76.3995C82.7651 75.7059 81.9888 74.8915 81.9469 74.508" fill="#F9D1AD"/>
<path fill-rule="evenodd" clip-rule="evenodd" d="M78.3593 88.4889C77.0008 84.4852 79.896 83.6708 79.3768 79.7932C79.3296 79.4202 87.669 86.8864 87.669 86.8864L86.7564 93.1862C86.7564 93.1862 85.8385 99.4387 85.8176 99.2653C85.8176 99.2653 79.5184 91.8936 78.3593 88.4889Z" fill="#C2956D"/>
<path d="M82.5657 54.2787C80.216 53.3749 75.8103 51.1944 71.0531 54.0842C69.4534 55.0563 67.1089 61.8447 69.6317 68.7645C70.5601 71.3075 73.8801 73.9399 75.8889 74.2604C78.4694 74.6702 79.3139 75.411 81.5639 74.3339C83.0745 73.6089 84.5273 71.5334 85.2931 69.1691C85.6602 68.0342 85.8438 66.7889 85.9487 65.4911C86.0851 63.7993 85.6655 61.5452 85.1515 59.5118C84.5903 57.263 84.4487 55.0037 82.5657 54.2787Z" fill="#F9D1AD"/>
<path fill-rule="evenodd" clip-rule="evenodd" d="M69.123 64.3824C71.6091 61.8447 74.2263 59.3804 78.0866 59.412C79.6286 59.4277 85.0728 59.9164 85.0728 59.9164C85.0728 59.9164 85.3613 60.5048 85.7442 60.3945C85.8334 60.3682 84.6533 57.0738 83.3682 55.2296C82.2144 53.5745 80.4311 52.3293 78.994 51.9037C73.4448 50.2749 68.116 55.4713 68.8188 60.9147" fill="#1A1A1A"/>
<path fill-rule="evenodd" clip-rule="evenodd" d="M84.0186 64.0261C83.7144 64.0839 83.4259 63.879 83.3682 63.5795C83.3105 63.2748 83.5098 62.9805 83.814 62.928C83.8193 62.928 83.8297 62.9227 83.835 62.9227C84.1392 62.8754 84.4277 63.0804 84.4749 63.3851C84.5221 63.6846 84.3175 63.9736 84.0186 64.0261ZM84.0186 64.0261C84.0133 64.0261 84.0133 64.0261 84.0081 64.0261H84.0186Z" fill="#1A1A1A"/>
<path fill-rule="evenodd" clip-rule="evenodd" d="M79.3244 62.9533C79.3978 62.9901 79.4555 63.0321 79.4922 63.0794C79.5185 63.111 79.5447 63.1477 79.5657 63.1845C79.6076 63.2581 79.6286 63.3369 79.6339 63.4105V63.4157V63.4315V63.4472V63.463V63.4735V63.4788V63.484C79.6234 63.6521 79.5394 63.8098 79.3926 63.9044C79.2772 63.9832 79.1251 64.0199 78.9782 63.9884C78.7422 63.9411 78.6478 63.7993 78.5954 63.7047C78.5219 63.5628 78.501 63.4052 78.5796 63.2213C78.6006 63.174 78.8261 62.9586 78.8366 62.9481C78.994 62.8798 79.1775 62.8798 79.3244 62.9533ZM79.5814 63.216C79.6286 63.3159 79.6496 63.4367 79.6234 63.5576C79.6181 63.5786 79.6129 63.6049 79.6076 63.6259C79.6234 63.5786 79.6339 63.5313 79.6391 63.4893V63.4788V63.4683V63.4525V63.4367V63.421V63.4157C79.6286 63.3474 79.6076 63.2791 79.5814 63.216ZM79.5657 63.1898L79.5709 63.195L79.5657 63.1898ZM79.2195 62.9166C79.3664 62.9533 79.487 63.0479 79.5604 63.174C79.5447 63.1425 79.5237 63.111 79.4975 63.0794C79.4503 63.0269 79.3926 62.9849 79.3297 62.9533C79.2929 62.9376 79.2562 62.9271 79.2195 62.9166ZM78.8366 62.9586L78.8261 62.9638L78.8366 62.9586Z" fill="#1A1A1A"/>
<path fill-rule="evenodd" clip-rule="evenodd" d="M83.9189 68.4447C83.9241 68.4658 82.2353 69.6269 80.0114 69.028C79.5761 68.9124 78.438 68.2819 78.396 68.3449C78.3278 68.45 78.6058 69.958 78.8785 70.3783C79.5132 71.3556 80.9293 71.7864 82.1828 71.3871C83.8769 70.8407 83.9189 68.4447 83.9189 68.4447Z" fill="#1A1A1A"/>
<path fill-rule="evenodd" clip-rule="evenodd" d="M83.5938 68.9118C83.5886 68.9118 82.2039 69.8365 80.9084 69.7157C79.7021 69.6001 78.6793 68.8382 78.6688 68.8382C78.6688 68.8382 79.2615 69.9153 80.0325 70.1833C80.3996 70.3094 80.9137 70.4407 81.3857 70.404C83.4207 70.2411 83.5938 68.9118 83.5938 68.9118Z" fill="white"/>
<path fill-rule="evenodd" clip-rule="evenodd" d="M82.4923 65.097C82.2773 65.0339 82.4871 66.2319 81.5377 66.5682C81.3752 66.626 81.1024 66.6312 80.966 66.7363C80.8559 66.8204 80.9503 66.957 81.0133 67.0305C81.4381 67.5139 82.4451 67.556 82.8228 66.957C83.085 66.5471 82.7074 65.16 82.4923 65.097Z" fill="#1A1A1A"/>
<path fill-rule="evenodd" clip-rule="evenodd" d="M80.5622 61.7291C80.536 61.7081 80.4835 61.6713 80.4625 61.6608C80.3891 61.6187 80.3104 61.5872 80.2318 61.5609C79.9381 61.4506 79.6338 61.4033 79.3191 61.3876C78.8419 61.3665 78.2964 61.3876 77.8034 61.5294C77.3366 61.666 76.917 61.9182 76.6652 62.3648C76.6128 62.4594 76.4921 62.4909 76.3977 62.4384C76.3033 62.3859 76.2666 62.265 76.3243 62.1704C76.6285 61.6293 77.1268 61.3193 77.6932 61.1511C78.2282 60.9935 78.8261 60.9672 79.3401 60.9935C79.6968 61.0093 80.0377 61.0723 80.3681 61.1932C80.4625 61.2299 80.5622 61.272 80.6514 61.3193C80.7038 61.3455 80.8244 61.4348 80.8402 61.4506C80.9556 61.5557 80.8874 61.6818 80.8769 61.6976C80.8716 61.7081 80.7615 61.8657 80.5937 61.7554C80.5832 61.7501 80.5727 61.7396 80.5622 61.7291ZM80.6986 61.3928C80.7353 61.3928 80.772 61.4033 80.8035 61.4243C80.7667 61.3981 80.73 61.3928 80.6986 61.3928Z" fill="#1A1A1A"/>
<path fill-rule="evenodd" clip-rule="evenodd" d="M85.5134 61.7874C85.078 61.3671 84.2966 61.2672 83.6409 61.4091C83.4993 61.4406 83.3105 61.4984 83.1532 61.593C83.0692 61.6455 82.9906 61.7033 82.9486 61.7769C82.8962 61.8715 82.7755 61.9083 82.6811 61.8557C82.5867 61.8032 82.55 61.6823 82.6024 61.5877C82.6759 61.4564 82.8017 61.346 82.9486 61.2567C83.1427 61.1411 83.3787 61.0623 83.557 61.0255C84.3438 60.8574 85.2669 61.0045 85.7861 61.5037C85.8648 61.5772 85.8648 61.7033 85.7914 61.7821C85.7179 61.861 85.592 61.8662 85.5134 61.7874Z" fill="#1A1A1A"/>
<path fill-rule="evenodd" clip-rule="evenodd" d="M69.837 59.5407C69.9055 59.5643 69.9419 59.639 69.9184 59.7076C69.919 59.7058 69.9193 59.7048 69.9194 59.7048C69.9197 59.7048 69.9178 59.7143 69.9155 59.7399C69.913 59.7683 69.9108 59.807 69.9089 59.8554C69.905 59.952 69.9026 60.082 69.9013 60.2346C69.8986 60.5396 69.9006 60.9308 69.9045 61.316C69.9085 61.7011 69.9144 62.0797 69.9196 62.3593C69.9222 62.4992 69.9247 62.6141 69.9266 62.6926C69.9276 62.732 69.9285 62.7618 69.9291 62.781C69.9293 62.7871 69.9295 62.7917 69.9297 62.795C69.9311 62.8059 69.9312 62.8171 69.9298 62.8285L69.9297 62.8286C69.9295 62.8302 69.9284 62.84 69.9248 62.8516C69.9218 62.8602 69.9083 62.886 69.8958 62.9018C69.8563 62.931 69.7569 62.9368 69.7117 62.9102C69.6965 62.8939 69.6799 62.8665 69.6762 62.8574C69.6745 62.8524 69.6722 62.8442 69.6715 62.841C69.6702 62.8353 69.6696 62.8306 69.6693 62.829C69.6686 62.823 69.6682 62.8172 69.6681 62.8152L69.6681 62.815C69.6677 62.8088 69.6674 62.8002 69.667 62.7902C69.6663 62.7697 69.6654 62.7387 69.6645 62.6992C69.6625 62.6199 69.66 62.5044 69.6574 62.3643C69.6521 62.084 69.6462 61.7046 69.6423 61.3187C69.6384 60.9329 69.6364 60.5398 69.639 60.2324C69.6403 60.0788 69.6428 59.9456 69.6468 59.8449C69.6488 59.7947 69.6513 59.7513 69.6543 59.717C69.6568 59.6885 69.6607 59.6505 69.6704 59.6222C69.6939 59.5536 69.7685 59.5171 69.837 59.5407ZM69.6702 62.7912C69.6698 62.7936 69.6696 62.7953 69.6695 62.7958L69.6695 62.7959C69.6697 62.7943 69.67 62.7927 69.6702 62.7912Z" fill="#F9D1AD"/>
<path fill-rule="evenodd" clip-rule="evenodd" d="M70.922 62.5124C70.922 62.5124 71.7297 61.8661 72.1598 61.5771C72.6581 61.2356 73.9588 60.3739 73.9221 60.4685C73.7228 60.9886 73.555 62.2812 73.5288 62.8276C73.4291 64.9766 74.0218 67.1833 74.7298 69.1589C75.2124 70.5093 75.7474 71.8859 76.4869 73.1153C76.6442 73.378 76.7963 73.6408 76.9589 73.8982C76.9904 73.9455 77.132 74.1399 77.0586 74.2135C76.9799 74.2923 76.5341 73.8299 76.4921 73.7879C75.8785 73.2309 75.3225 72.6162 74.8033 71.9699C73.8434 70.772 72.7945 69.4321 72.1913 68.0083C71.478 66.3217 71.1948 64.3146 70.922 62.5124Z" fill="#C2956D"/>
<path fill-rule="evenodd" clip-rule="evenodd" d="M75.9781 54.2949C75.9781 54.2949 71.3678 58.7084 71.3416 58.8503C71.2787 59.176 71.2367 59.5018 71.1843 59.8276C71.0322 60.8206 73.8329 59.3862 73.9588 60.3635C74.9763 67.9611 77.0586 79.9091 86.9872 89.2774C87.711 89.9604 88.9698 91.4736 88.1306 91.7101C85.6288 92.4089 72.6843 92.1304 66.9254 78.4747C65.4778 75.0385 62.9812 66.4951 65.4306 58.2566C66.6684 54.09 69.5741 52.0986 72.8784 51.2317C73.9326 50.9532 76.4449 50.2492 78.6793 50.7746C79.9328 51.0688 81.0919 52.0934 81.5273 52.4717C81.6898 52.6135 78.2754 53.0181 78.1757 53.2861C78.118 53.4385 77.6722 53.4962 77.5516 53.5383C76.9851 53.7117 76.4921 53.9691 75.9781 54.2949Z" fill="#1A1A1A"/>
<path fill-rule="evenodd" clip-rule="evenodd" d="M81.5588 73.9613C81.5797 73.9928 81.307 74.0559 81.2808 74.0611C80.9871 74.1137 80.6933 74.1452 80.3944 74.1557C79.7021 74.182 79.0936 73.9981 78.4747 73.7038C78.2335 73.5882 77.9975 73.4727 77.7614 73.3571C77.7405 73.3466 77.5516 73.2415 77.5411 73.3098C77.5307 73.3781 77.6093 73.4727 77.6408 73.5252C77.7719 73.7459 77.9345 73.9508 78.1233 74.1294C78.8786 74.8545 79.9171 75.2643 80.9294 75.4693C81.2703 75.5376 82.1147 75.5954 82.1829 75.5954C82.1881 75.5954 82.314 75.6006 82.314 75.5901C82.3193 75.5586 81.7581 74.5866 81.6689 74.2188" fill="#C2956D"/>
<path fill-rule="evenodd" clip-rule="evenodd" d="M78.1339 50.6219C79.9171 50.8321 80.8245 51.1947 82.2144 52.1509C83.3316 52.9233 84.5589 54.715 85.0257 55.7343C87.4856 61.0778 87.7111 68.6386 88.6814 70.9399C90.4175 75.0645 97.7604 85.2629 97.0366 86.5292C96.3128 87.7954 86.9296 80.6287 84.3491 78.5375C82.9592 77.4131 81.5431 73.9716 81.5431 73.9716C81.5431 73.9716 82.1305 73.6984 82.5763 73.2938C83.3106 72.6265 84.0921 71.6282 84.3753 71.1501C84.8998 70.2569 85.3194 69.08 85.4453 68.5388C86.4156 64.409 85.1568 61.682 84.9628 60.0743" fill="#1A1A1A"/>
<path fill-rule="evenodd" clip-rule="evenodd" d="M79.917 98.1094C79.9118 98.0989 79.9013 98.0831 79.8908 98.0726C79.8698 98.0463 79.8436 98.0148 79.8121 97.9885C79.702 97.8887 79.5604 97.7889 79.5027 97.7363C79.0044 97.3002 78.4904 96.8746 77.9764 96.4596C76.6389 95.3719 75.1966 94.0531 73.4448 93.7484C72.4535 93.575 71.436 93.5277 70.4289 93.5172C70.1719 93.5119 69.8415 93.554 69.5373 93.5487C69.3118 93.5435 69.0967 93.5119 68.9236 93.4279C68.7558 93.3491 68.6876 93.1914 68.6981 92.997C68.7086 92.6608 68.9656 92.1826 69.0338 92.004C69.4009 91.0267 69.8363 90.0599 70.3083 89.1299C70.3607 89.0249 70.5286 88.7779 70.6335 88.552C70.665 88.4837 70.6912 88.4206 70.7069 88.3628C70.7174 88.3261 70.7226 88.2998 70.7122 88.2735C70.7017 88.242 70.665 88.221 70.623 88.2C70.5548 88.1684 70.4709 88.1422 70.3817 88.1264C70.0723 88.0633 69.6842 88.0686 69.5425 88.0528C68.5827 87.9478 67.6176 87.8952 66.6578 87.8059C66.49 87.7901 66.191 87.7849 65.9603 87.7061C65.7662 87.643 65.6141 87.5274 65.5616 87.354C65.5092 87.1649 65.5616 86.9337 65.677 86.7078C65.8239 86.4083 66.0652 86.1035 66.191 85.9196C66.4166 85.5834 66.6736 85.2629 66.9201 84.9423C67.303 84.4537 67.6753 83.9493 68.0005 83.4186C68.0372 83.3556 68.1212 83.3398 68.1789 83.3766C68.2418 83.4134 68.2628 83.4974 68.2208 83.5552C67.8904 84.0912 67.5127 84.6061 67.1246 85.1052C66.8781 85.4205 66.6264 85.7357 66.4061 86.0667C66.2854 86.2454 66.0547 86.5344 65.913 86.8234C65.8344 86.9862 65.7767 87.1491 65.8134 87.2857C65.8396 87.3803 65.934 87.4276 66.0389 87.4591C66.254 87.5274 66.5267 87.5327 66.6841 87.5432C67.6439 87.6325 68.6142 87.685 69.574 87.7901C69.7418 87.8111 70.2611 87.8059 70.5968 87.9057C70.7856 87.9635 70.9167 88.0581 70.9639 88.1789C70.9954 88.263 70.9796 88.3944 70.9272 88.5415C70.8275 88.7989 70.6073 89.1142 70.5443 89.2455C70.0775 90.1703 69.6474 91.1265 69.2803 92.0933C69.2278 92.2352 69.039 92.582 68.9761 92.8762C68.9603 92.9392 68.9551 93.0023 68.9604 93.0601C68.9656 93.1126 68.9866 93.1599 69.0338 93.1809C69.2174 93.2703 69.4534 93.2808 69.6894 93.2755C69.9516 93.2703 70.2139 93.244 70.4289 93.244C71.4464 93.2545 72.4797 93.307 73.4867 93.4804C75.2752 93.7957 76.7648 95.1302 78.1337 96.2441C78.653 96.6645 79.167 97.0901 79.6653 97.5314C79.7387 97.5945 79.9223 97.7206 80.0376 97.8414C80.1058 97.915 80.153 97.9885 80.1635 98.0463C80.1793 98.1199 80.1321 98.1882 80.0639 98.2039C80.0009 98.225 79.9327 98.1777 79.917 98.1094Z" fill="#181161"/>
<path d="M54.7309 121.58L53.6557 120.823L47.5296 124.601L49.2447 125.562L54.7309 121.58Z" fill="#181161"/>
<path fill-rule="evenodd" clip-rule="evenodd" d="M121.452 64.5143L124.667 71.4709L123.14 72.0331L120.434 64.6877L121.389 64.2726L121.452 64.5143Z" fill="#181161"/>
<path fill-rule="evenodd" clip-rule="evenodd" d="M89.1482 82.2046C88.8859 82.4252 88.4296 83.1503 88.5345 83.5706C88.5922 83.8123 88.9069 83.9595 89.101 84.0698C89.7356 84.4271 90.0031 84.6583 90.6902 84.8895C91.0521 85.0156 91.6133 85.0681 91.5346 85.5778C91.4245 86.2608 86.7512 98.9865 86.8246 99.0916C86.8299 99.1021 89.7828 91.4887 90.066 90.8582C90.5748 89.7286 92.4787 85.8878 92.5836 85.2888C92.7514 84.3325 89.2478 83.5234 89.2478 83.5234L89.615 82.5408C89.615 82.5408 89.2006 82.1573 89.1482 82.2046Z" fill="#958EEB"/>
<path fill-rule="evenodd" clip-rule="evenodd" d="M289.232 199.653C288.891 199.658 286.227 200.252 286.227 200.252C286.227 200.252 296.318 234.609 298.767 241.439C298.988 242.054 300.965 241.87 300.897 241.224C300.21 233.684 294.75 196.201 294.629 196.185C294.629 196.185 291.131 199.616 289.232 199.653Z" fill="#8DA6E7"/>
<path fill-rule="evenodd" clip-rule="evenodd" d="M265.195 200.614C265.525 200.62 266.983 200.42 267.198 200.693C267.424 200.961 266.889 201.781 266.784 202.028C266.291 203.247 256.991 234.909 254.61 241.44C254.385 242.054 252.407 241.87 252.476 241.224C253.184 234.247 258.738 199.606 258.869 199.59C258.869 199.59 263.291 200.572 265.195 200.614Z" fill="#8DA6E7"/>
<path fill-rule="evenodd" clip-rule="evenodd" d="M291.792 176.198C287.879 182.487 287.008 181.794 279.141 184.983C272.805 187.552 268.457 183.711 261.859 182.923C259.158 182.603 254.317 181.857 251.568 182.923V177.701H279.387C279.849 173.834 281.244 170.303 283.295 167.392C280.688 163.94 279.151 159.652 279.151 155.018C279.151 143.58 281.129 131.574 292.699 131.574C298.196 131.574 308.827 131.038 313.354 133.602C317.654 136.04 320.329 142.019 319.878 146.953C319.086 155.591 308.617 185.419 308.617 185.419C308.617 185.419 295.468 170.308 291.792 176.198Z" fill="#958EEB"/>
<path fill-rule="evenodd" clip-rule="evenodd" d="M303.525 197.23C295.736 204.828 266.008 202.936 255.381 201.985C253.215 201.78 251.568 199.962 251.568 197.787C251.568 191.04 251.568 177.705 251.568 177.705H279.387C279.849 173.838 281.244 170.307 283.295 167.397C279.235 163.703 279.151 159.657 279.151 155.023C279.151 143.585 288.535 134.295 300.105 134.295C311.114 134.295 308.533 140.984 308.796 145.781C309.362 156.268 313.06 187.925 303.525 197.23Z" fill="#958EEB"/>
<path fill-rule="evenodd" clip-rule="evenodd" d="M256.645 195.423C263.348 199.384 285.414 198.397 293.858 193.5C300.325 189.748 296.989 179.607 292.148 172.992C289.3 169.089 283.809 167.938 279.083 166.908C266.668 166.908 257.27 167.943 253.504 172.992C249.733 178.042 249.953 191.456 256.645 195.423Z" fill="#8DA6E7"/>
<path d="M9.00357 241.682H310.138V242.471H9.00357V241.682Z" fill="#1A1A1A"/>
<path fill-rule="evenodd" clip-rule="evenodd" d="M244.878 131.409C244.878 131.409 242.715 134.307 241.856 135.571C240.344 137.792 235.468 145.607 232.441 145.209C230.613 144.97 226.082 144.46 222.698 143.75C216.731 142.495 210.203 141.896 208.479 141.944C205.424 142.035 202.487 141.662 199.477 141.414C198.869 141.363 196.927 141.155 196.503 141.875C195.48 143.609 202.122 143.579 202.296 143.712C202.42 143.811 201.163 145.937 202.862 146.998C205.143 148.421 207.852 146.373 210.25 146.905C212.677 147.441 217.186 149.618 221.879 151.369C227.535 153.482 233.369 155.179 235.081 155.256C238.85 155.425 253.577 138.608 253.577 138.608L244.878 131.409Z" fill="#F9D1AD"/>
<path fill-rule="evenodd" clip-rule="evenodd" d="M282.964 128.463L284.59 129.146C284.59 129.146 296.79 159.899 284.176 160.493C282.718 160.561 278.737 161.307 278.737 161.307L272.401 132.772L282.964 128.463Z" fill="#5F54EE"/>
<path fill-rule="evenodd" clip-rule="evenodd" d="M241.194 110.21C242.594 116.378 247.708 120.429 252.612 119.247C257.516 118.065 260.359 112.091 258.958 105.917C257.558 99.7489 252.444 95.6979 247.54 96.8801C242.636 98.0676 239.793 104.042 241.194 110.21Z" fill="#F9D1AD"/>
<path fill-rule="evenodd" clip-rule="evenodd" d="M257.825 114.949C257.804 116.935 258.591 117.377 260.207 118.491C260.731 118.853 262.509 117.624 262.472 117.702C262.31 118.044 265.32 123.477 260.721 126.95C258.523 128.605 252.156 126.099 252.035 122.683C251.794 122.741 253.477 121.438 250.058 119.431C249.801 119.3 249.754 119.111 249.754 119.111" fill="#F9D1AD"/>
<path fill-rule="evenodd" clip-rule="evenodd" d="M242.643 110.083C242.47 109.902 242.188 109.866 241.973 110.009C241.732 110.17 241.667 110.497 241.827 110.739L242.249 110.457C241.827 110.739 241.827 110.739 241.827 110.739L241.828 110.74L241.829 110.741L241.831 110.744L241.837 110.753C241.841 110.758 241.849 110.769 241.86 110.783C241.865 110.789 241.874 110.8 241.886 110.813C241.894 110.822 241.92 110.85 241.958 110.879C241.977 110.893 242.016 110.921 242.072 110.944C242.12 110.964 242.245 111.008 242.402 110.969C242.59 110.922 242.703 110.788 242.754 110.672C242.797 110.575 242.8 110.491 242.8 110.457C242.8 110.311 242.74 110.178 242.643 110.083ZM241.75 110.457C241.75 110.449 241.75 110.437 241.751 110.423C241.75 110.434 241.75 110.446 241.75 110.457Z" fill="#1A1A1A"/>
<path fill-rule="evenodd" clip-rule="evenodd" d="M247.598 108.671C247.598 108.671 247.608 108.686 247.608 108.681L247.598 108.671Z" fill="#1A1A1A"/>
<path fill-rule="evenodd" clip-rule="evenodd" d="M247.977 108.306C247.804 108.126 247.522 108.09 247.307 108.234C247.066 108.395 247.001 108.721 247.162 108.963L247.583 108.681C247.162 108.963 247.162 108.963 247.162 108.963L247.162 108.964L247.163 108.965L247.165 108.968L247.171 108.977C247.175 108.982 247.183 108.994 247.194 109.007C247.199 109.014 247.208 109.025 247.22 109.037C247.228 109.047 247.254 109.074 247.292 109.103C247.311 109.117 247.35 109.145 247.406 109.168C247.455 109.188 247.579 109.232 247.736 109.193C247.924 109.146 248.037 109.012 248.088 108.896C248.131 108.799 248.134 108.715 248.134 108.681C248.134 108.535 248.074 108.402 247.977 108.306ZM247.084 108.681C247.084 108.673 247.084 108.661 247.085 108.647C247.084 108.658 247.084 108.67 247.084 108.681Z" fill="#1A1A1A"/>
<path fill-rule="evenodd" clip-rule="evenodd" d="M247.886 116.878C249.045 116.846 250.115 116.063 250.393 115.049C250.509 114.613 250.346 113.257 250.262 113.189C250.21 113.147 249.423 114.019 249.087 114.245C247.378 115.412 245.657 114.928 245.657 114.907C245.657 114.907 246.329 116.92 247.886 116.878Z" fill="#1A1A1A"/>
<path fill-rule="evenodd" clip-rule="evenodd" d="M248.301 115.816C248.71 115.711 249.108 115.448 249.381 115.233C249.958 114.781 250.168 113.694 250.168 113.694C250.157 113.694 249.502 114.645 248.521 115.096C247.467 115.58 246.061 115.207 246.056 115.207C246.056 115.207 246.549 116.284 248.301 115.816Z" fill="white"/>
<path fill-rule="evenodd" clip-rule="evenodd" d="M252.796 119.242C253.483 119.032 254.815 118.396 255.874 117.681C257.054 116.883 257.836 115.096 257.836 115.096C257.836 115.096 258.481 116.499 259.173 117.056C259.834 117.592 262.446 117.613 262.446 117.613C262.446 117.613 261.067 119.316 259.42 120.167C256.635 121.601 249.969 119.368 249.932 119.379C249.932 119.379 251.301 119.704 252.796 119.242Z" fill="#C2956D"/>
<path fill-rule="evenodd" clip-rule="evenodd" d="M247.126 113.588C247.729 113.478 248.023 112.622 247.766 112.096C247.729 112.017 247.645 111.891 247.545 111.954C247.414 112.028 247.325 112.259 247.225 112.375C246.649 113.047 245.982 112.606 245.967 112.806C245.951 113.01 246.711 113.662 247.126 113.588Z" fill="#1A1A1A"/>
<path fill-rule="evenodd" clip-rule="evenodd" d="M257.82 115.033C257.883 114.235 258.434 113.972 258.733 113C259.168 111.587 259.252 110.641 259.367 109.464C259.577 107.294 258.832 104.278 258.14 103.017C257.102 101.125 253.446 102.376 253.446 102.376L250.388 102.865C250.388 102.865 250.094 102.949 251.615 104.315C253.614 106.112 257.464 109.758 256.388 114.76" fill="#1A1A1A"/>
<path fill-rule="evenodd" clip-rule="evenodd" d="M256.367 114.75C255.659 118.055 251.657 119.4 250.031 119.426C250.031 119.426 251.789 119.941 252.859 119.468C254.091 118.927 256.037 118.617 257.007 117.655C257.616 117.051 257.778 117.082 257.883 116.2C257.904 116.042 257.794 115.238 257.81 115.033" fill="#C2956D"/>
<path fill-rule="evenodd" clip-rule="evenodd" d="M256.441 114.082C256.315 114.876 255.948 114.445 255.701 115.212C255.638 115.406 255.523 115.906 255.245 115.916C255.035 115.921 254.888 115.59 254.804 115.438C254.495 114.886 254.894 115.722 254.511 115.212C253.734 114.177 252.297 113.536 251.967 112.201C251.689 111.098 252.303 110.115 252.607 109.091C252.769 108.544 252.769 107.982 252.696 107.425C252.533 106.196 252.051 105.576 251.285 104.651C251.059 104.378 250.713 103.868 250.435 103.647C250.346 103.574 252.685 104.467 254.018 106.012C256.1 108.424 256.776 111.965 256.441 114.082Z" fill="#F9D1AD"/>
<path fill-rule="evenodd" clip-rule="evenodd" d="M256.887 105.497C256.137 105.008 255.638 106.054 255.68 107.488C255.706 108.276 255.911 109.711 256.016 109.826C256.016 109.826 258.675 106.658 256.887 105.497Z" fill="#1A1A1A"/>
<path fill-rule="evenodd" clip-rule="evenodd" d="M256.122 104.654C256.558 104.505 256.981 104.618 257.315 104.836C258.021 105.294 258.289 105.98 258.292 106.66C258.295 107.292 258.074 107.922 257.834 108.433C257.587 108.958 257.283 109.431 257.047 109.767C256.928 109.937 256.823 110.075 256.747 110.173C256.709 110.222 256.678 110.26 256.656 110.287C256.645 110.301 256.636 110.312 256.63 110.32L256.622 110.329L256.62 110.332L256.618 110.333C256.618 110.333 256.442 110.469 256.199 110.56L256.207 110.591C255.926 110.661 255.629 110.571 255.434 110.357C255.335 110.248 255.286 110.134 255.272 110.099C255.249 110.046 255.232 109.995 255.22 109.954C255.194 109.871 255.172 109.777 255.153 109.686C255.114 109.5 255.075 109.266 255.04 109.022C254.97 108.534 254.908 107.948 254.894 107.515L254.894 107.511C254.871 106.728 254.988 105.943 255.301 105.385C255.459 105.103 255.718 104.792 256.122 104.654ZM256.474 107.621C256.634 107.252 256.72 106.923 256.718 106.667C256.718 106.508 256.687 106.39 256.611 106.293C256.523 106.532 256.451 106.932 256.467 107.464C256.468 107.513 256.471 107.565 256.474 107.621Z" fill="#1A1A1A"/>
<path fill-rule="evenodd" clip-rule="evenodd" d="M240.911 107.739C242.648 106.734 244.85 107.234 245.811 108.902C246.772 110.569 246.105 112.726 244.372 113.732L244.372 113.732C242.635 114.737 240.433 114.237 239.472 112.569C238.511 110.907 239.172 108.744 240.911 107.739ZM245.357 109.164C244.556 107.774 242.687 107.318 241.173 108.194C239.659 109.069 239.125 110.921 239.926 112.306L239.926 112.306C240.727 113.696 242.596 114.153 244.11 113.277C245.619 112.401 246.158 110.555 245.357 109.164Z" fill="#1A1A1A"/>
<path fill-rule="evenodd" clip-rule="evenodd" d="M247.86 105.406C249.598 104.401 251.799 104.901 252.76 106.569C253.722 108.237 253.054 110.394 251.322 111.399L251.322 111.399C249.584 112.404 247.383 111.904 246.422 110.237C245.455 108.574 246.123 106.411 247.86 105.406ZM252.306 106.832C251.505 105.442 249.636 104.985 248.122 105.861C246.608 106.737 246.07 108.588 246.875 109.973L246.876 109.974C247.677 111.363 249.545 111.82 251.059 110.944C252.568 110.068 253.107 108.222 252.306 106.832Z" fill="#1A1A1A"/>
<path fill-rule="evenodd" clip-rule="evenodd" d="M246.699 109.761C246.747 109.867 246.699 109.992 246.594 110.039C246.529 110.068 246.464 110.09 246.409 110.108C246.402 110.11 246.395 110.112 246.389 110.114C246.339 110.13 246.299 110.143 246.26 110.159C246.259 110.159 246.258 110.159 246.257 110.16C246.255 110.161 246.252 110.163 246.246 110.166C246.236 110.172 246.228 110.177 246.217 110.184C246.212 110.187 246.207 110.191 246.201 110.195C246.2 110.195 246.2 110.195 246.199 110.196C246.189 110.202 246.157 110.223 246.126 110.234L246.126 110.234C246.118 110.237 246.088 110.248 246.049 110.248C246.028 110.248 245.991 110.245 245.951 110.224C245.906 110.2 245.87 110.161 245.851 110.112C245.822 110.035 245.847 109.97 245.851 109.959C245.851 109.959 245.851 109.959 245.851 109.959C245.859 109.938 245.868 109.923 245.873 109.915C245.904 109.866 245.952 109.833 246.004 109.821C246.013 109.816 246.022 109.81 246.03 109.805C246.045 109.796 246.075 109.779 246.108 109.766C246.16 109.746 246.215 109.728 246.261 109.713C246.268 109.711 246.274 109.709 246.281 109.707C246.336 109.689 246.381 109.674 246.421 109.656C246.527 109.608 246.651 109.655 246.699 109.761Z" fill="#1A1A1A"/>
<path fill-rule="evenodd" clip-rule="evenodd" d="M253.367 106.201C253.414 106.128 253.495 106.08 253.588 106.08C253.603 106.08 253.632 106.081 253.667 106.092C253.701 106.102 253.762 106.128 253.809 106.193C253.858 106.263 253.862 106.339 253.854 106.39C253.846 106.436 253.829 106.469 253.819 106.485C253.801 106.516 253.779 106.538 253.772 106.545C253.762 106.555 253.752 106.564 253.745 106.57C253.735 106.578 253.722 106.589 253.714 106.595C253.713 106.596 253.711 106.598 253.71 106.599C253.705 106.603 253.702 106.605 253.702 106.605C253.7 106.607 253.698 106.609 253.696 106.611C253.669 106.635 253.644 106.659 253.616 106.686L253.615 106.686C253.589 106.712 253.56 106.739 253.53 106.767L253.528 106.768C253.357 106.93 253.179 107.097 252.989 107.255C252.878 107.347 252.712 107.332 252.62 107.22C252.527 107.108 252.543 106.943 252.654 106.85C252.831 106.704 252.998 106.546 253.172 106.383L253.175 106.38L253.175 106.38C253.201 106.356 253.227 106.332 253.255 106.305L253.255 106.304C253.281 106.279 253.31 106.252 253.34 106.225C253.349 106.216 253.359 106.208 253.367 106.201Z" fill="#1A1A1A"/>
<path fill-rule="evenodd" clip-rule="evenodd" d="M256.415 114.755C256.346 113.336 254.033 105.98 252.638 105.287C251.715 104.824 250.336 103.716 249.46 102.991C247.96 101.751 249.754 99.854 249.858 98.1726C249.89 97.6892 248.007 95.8345 248.17 95.7662C248.747 95.5245 251.757 95.1725 252.308 95.2881C253.11 95.4562 256.31 96.6541 257.689 98.1621C260.883 101.651 261.46 104.094 261.35 107.031C261.24 110.005 257.804 115.527 257.81 115.054C257.27 115.391 256.441 115.154 256.415 114.755Z" fill="#1A1A1A"/>
<path fill-rule="evenodd" clip-rule="evenodd" d="M255.151 109.889C256.047 110.042 256.971 109.086 257.207 107.762C257.443 106.437 256.902 105.24 256.005 105.092C255.109 104.94 254.185 105.896 253.949 107.22C253.713 108.544 254.248 109.737 255.151 109.889Z" fill="#F9D1AD"/>
<path fill-rule="evenodd" clip-rule="evenodd" d="M242.222 99.5702C243.349 98.1148 246.418 96.0394 246.958 95.8608C249.381 95.0516 251.762 95.0569 252.339 95.225C254.044 95.7189 251.212 99.2445 251.935 100.647C252.371 101.488 253.037 101.73 252.712 102.749C252.497 103.432 249.722 101.688 247.577 101.441C245.521 101.204 244.016 102.991 243.958 104.283C243.827 107.215 240.743 107.494 240.743 107.494C240.743 107.494 240.161 105.523 240.197 104.593C240.307 101.793 241.115 100.999 242.222 99.5702Z" fill="#1A1A1A"/>
<path fill-rule="evenodd" clip-rule="evenodd" d="M245.164 97.9204C247.225 101.493 251.71 102.76 255.177 100.752C258.644 98.7453 259.787 94.2162 257.726 90.6486C255.665 87.0758 251.18 85.8095 247.713 87.8166C244.246 89.8237 243.108 94.3476 245.164 97.9204Z" fill="#1A1A1A"/>
<path fill-rule="evenodd" clip-rule="evenodd" d="M245.227 99.8802C247.65 98.346 249.927 101.099 251.254 102.754C251.553 103.122 251.841 103.5 252.135 103.873C252.722 104.625 254.348 105.276 254.222 106.227C254.138 106.853 254.495 108.066 253.881 107.966C253.383 107.888 252.906 106.049 251.857 105.103C249.874 103.316 248.626 103.894 247.131 104.982C245.128 106.437 243.134 103.474 242.967 103.453C242.867 103.443 242.767 103.437 242.668 103.448C242.657 103.448 244.12 100.905 244.12 100.905C244.451 100.516 244.797 100.164 245.227 99.8802Z" fill="#1A1A1A"/>
<path fill-rule="evenodd" clip-rule="evenodd" d="M255.79 106.338C256.105 106.359 256.346 106.627 256.325 106.942C256.325 107.021 256.299 107.121 256.236 107.22C256.21 107.262 256.068 107.394 256.063 107.394C255.806 107.551 255.465 107.488 255.292 107.236C255.114 106.979 255.172 106.632 255.418 106.448L255.423 106.443L255.429 106.437L255.434 106.432L255.444 106.427L255.45 106.422C255.549 106.359 255.67 106.322 255.79 106.338ZM256.079 107.367C256.079 107.373 256.058 107.383 256.058 107.383L256.079 107.367ZM255.187 106.837L255.193 106.816L255.187 106.837ZM255.193 106.8L255.198 106.784L255.193 106.8ZM255.203 106.768V106.779L255.208 106.758L255.203 106.768ZM255.213 106.732L255.208 106.747L255.213 106.732ZM255.229 106.684L255.224 106.7L255.213 106.721L255.224 106.7L255.229 106.684ZM255.24 106.669L255.245 106.658L255.24 106.669ZM255.255 106.632L255.261 106.627L255.255 106.632Z" fill="#1A1A1A"/>
<path d="M246.995 98.8399C246.979 98.8084 246.953 98.7874 246.921 98.7769C246.885 98.7558 246.843 98.7611 246.806 98.7716C246.795 98.7558 246.785 98.7453 246.769 98.7296C246.78 98.7191 246.785 98.698 246.785 98.6823C246.79 98.5719 246.685 98.5352 246.607 98.5089C246.58 98.5036 246.528 98.4826 246.512 98.4774C246.371 98.3828 246.229 98.283 246.093 98.1779C245.741 97.9047 245.374 97.5894 245.012 97.2269C243.979 96.2023 243.475 95.0464 243.428 93.5962C243.428 93.5227 243.365 93.4649 243.292 93.4649C243.218 93.4649 243.161 93.5279 243.161 93.6015C243.208 95.1199 243.738 96.3336 244.823 97.4108C245.18 97.7628 245.531 98.078 245.883 98.346C245.862 98.3355 245.836 98.325 245.815 98.3197C245.054 98.015 244.341 97.7313 243.706 97.1586C242.138 95.7609 242.101 92.9079 242.961 91.0689C242.993 91.0059 242.967 90.9271 242.898 90.8903C242.836 90.8588 242.752 90.8903 242.72 90.9533C241.818 92.8764 241.876 95.8713 243.533 97.3582C244.204 97.9572 244.981 98.2672 245.72 98.5667C246.019 98.6875 246.334 98.8136 246.633 98.9555C246.67 98.966 246.706 98.9713 246.743 98.9555C246.753 98.9765 246.769 98.987 246.795 99.0028C246.832 99.0238 246.89 99.029 246.927 99.0133C246.948 99.0028 246.963 98.987 246.979 98.9713C247 98.9345 247.01 98.8872 246.995 98.8399Z" fill="#1A1A1A"/>
<path d="M261.198 96.2496C261.235 96.176 261.256 96.0657 261.282 95.9554C261.292 95.8976 261.313 95.8135 261.324 95.7925L261.256 95.7399L261.371 95.6769C261.319 95.5718 261.235 95.5718 261.203 95.5771C261.082 95.5876 261.056 95.7137 261.014 95.8976C260.999 95.9711 260.978 96.0815 260.957 96.1182C260.784 96.444 260.548 96.7382 260.338 96.9799C259.787 97.6104 259.137 98.1831 258.182 98.1989C259.546 97.0062 260.532 94.9308 259.897 92.992C259.64 92.2039 259.21 91.2423 258.638 91.1215L258.586 91.3842C258.922 91.4525 259.32 92.083 259.645 93.0708C260.28 94.9991 259.189 97.085 257.789 98.1674C257.752 98.1621 257.726 98.1569 257.694 98.1516L257.679 98.2462C257.647 98.2725 257.61 98.2935 257.574 98.3197L257.726 98.5404C257.768 98.5036 257.82 98.4774 257.862 98.4406C259.105 98.5562 259.881 97.8889 260.537 97.1375C260.673 96.9852 260.815 96.8118 260.946 96.6226C261.035 96.507 261.119 96.3809 261.198 96.2496ZM261.219 95.7504V95.8398C261.172 95.8398 261.135 95.8082 261.124 95.7925L261.219 95.7504Z" fill="#1A1A1A"/>
<path d="M250.016 106.595C249.413 106.059 248.505 106.043 247.33 106.548C247.037 106.674 246.79 106.826 246.575 107.005C246.507 107.063 246.444 107.121 246.386 107.189C246.386 107.189 246.035 107.588 246.108 107.772C246.134 107.851 246.197 107.898 246.271 107.914C246.35 107.924 246.428 107.893 246.475 107.83C246.491 107.814 246.496 107.798 246.502 107.783C246.544 107.714 246.68 107.504 246.706 107.467C246.753 107.42 246.801 107.373 246.853 107.331C247.037 107.173 247.246 107.042 247.498 106.937C248.51 106.501 249.266 106.49 249.738 106.91C249.827 106.984 249.958 106.984 250.037 106.889C250.105 106.805 250.1 106.679 250.016 106.595ZM243.947 108.434C243.664 108.182 243.161 108.234 243.019 108.261C242.295 108.371 241.661 108.781 241.398 109.306C241.346 109.406 241.388 109.532 241.493 109.59C241.598 109.637 241.718 109.601 241.776 109.495C241.975 109.096 242.5 108.77 243.082 108.681C243.323 108.639 243.57 108.676 243.664 108.755C243.753 108.828 243.884 108.828 243.963 108.734C243.958 108.739 243.963 108.734 243.963 108.734C244.042 108.639 244.037 108.513 243.947 108.434Z" fill="#1A1A1A"/>
<path fill-rule="evenodd" clip-rule="evenodd" d="M247.357 170.118C244.577 172.351 225.963 174.159 225.412 182.434C225.213 185.503 224.41 231.976 224.41 231.976C224.41 231.976 222.401 233.952 220.607 233.936C219.501 233.925 217.571 231.829 217.571 231.829C217.571 231.829 211.308 192.007 211.98 171.316C212.31 161.696 222.858 162.274 230.211 162.269C231.874 162.269 235.335 166.703 235.729 165.652" fill="#F9D1AD"/>
<path fill-rule="evenodd" clip-rule="evenodd" d="M222.496 176.219L229.12 162.342C229.12 162.342 238.923 173.424 239.332 173.996C240.014 174.953 241.141 177.033 241.545 178.137C241.97 179.308 242.416 181.783 242.578 183.018C242.767 184.484 243.024 187.641 243.024 187.641C243.024 187.641 239.384 187.321 238.146 187.011C235.372 186.317 226.775 185.829 226.775 185.829L222.496 176.219Z" fill="#C2956D"/>
<path fill-rule="evenodd" clip-rule="evenodd" d="M243.024 187.636C243.024 187.636 242.793 180.012 239.919 175.467C233.589 165.442 222.27 162.479 222.27 162.479C222.27 162.479 241.246 159.011 250.75 157.519C256.661 157.33 259.467 159.153 259.908 159.295C263.254 160.377 268.766 161.554 274.378 162.153C276.351 162.368 277.929 161.212 279.497 161.071C285.152 160.566 288.031 158.627 288.062 158.727C289.641 163.897 300.047 187.972 276.052 190.757C267.98 191.697 243.024 187.636 243.024 187.636Z" fill="#181161"/>
<path d="M283.243 160.651L280.054 161.008L275.197 159.91L250.75 157.519L243.612 158.087L239.405 158.828L239.484 160.53L251.217 160.409C251.217 160.409 251.983 160.856 252.25 160.971C253.556 161.534 256.305 162.269 257.642 162.747C258.759 163.147 260.952 164.071 262.074 164.45C263.931 165.075 267.723 166.084 269.642 166.483C270.739 166.714 272.957 167.092 274.074 167.15C274.83 167.187 276.366 167.182 277.101 167.003C277.604 166.882 278.564 166.451 278.984 166.152C279.587 165.721 280.536 164.544 281.013 163.971C281.538 163.341 282.571 162.059 282.97 161.344C283.059 161.181 283.237 160.656 283.243 160.651Z" fill="#1A1A1A"/>
<path fill-rule="evenodd" clip-rule="evenodd" d="M225.155 194.924L224.468 231.882H219.149C219.149 231.882 216.391 200.914 216.296 185.309C216.223 173.145 218.604 172.578 218.656 172.588C218.997 172.599 225.155 194.929 225.155 194.924Z" fill="#C2956D"/>
<path fill-rule="evenodd" clip-rule="evenodd" d="M229.209 165.489C229.209 165.489 233.636 169.199 235.031 171.92C236.678 175.131 238.157 187.005 238.157 187.005C238.157 187.005 232.12 185.881 231.743 186.579C231.559 189.086 234.423 193.746 235.991 200.13C237.879 207.854 238.629 217.537 239.526 221.725C239.71 222.539 242.049 227.594 242.799 228.597C243.989 230.189 240.192 227.126 239.977 228.566C239.489 231.823 240.276 231.871 238.063 233.048C236.526 233.867 236.264 238.044 234.496 238.417C233.41 238.649 232.251 239.694 231.276 239.1C230.987 238.927 231.989 238.239 232.251 237.824C232.718 237.088 232.099 236.736 232.786 236.258C235.057 234.671 234.779 229.727 234.611 226.585C234.533 224.972 226.807 205.899 221.714 193.026C220.036 188.786 216.69 176.654 218.955 168.516C223.261 161.254 229.209 165.489 229.209 165.489Z" fill="#F9D1AD"/>
<path fill-rule="evenodd" clip-rule="evenodd" d="M253.336 108.203C253.336 108.203 253.346 108.218 253.346 108.213L253.336 108.203Z" fill="#1A1A1A"/>
<path fill-rule="evenodd" clip-rule="evenodd" d="M205.418 241.88C208.749 242.442 221.436 242.379 225.071 242.143C225.968 242.085 227.269 241.354 227.216 240.451C227.122 238.743 224.494 231.902 224.494 231.902L217.571 231.939C217.571 231.939 207.301 237.088 205.109 238.79C204.285 239.426 204.411 241.712 205.418 241.88Z" fill="#1A1A1A"/>
<path fill-rule="evenodd" clip-rule="evenodd" d="M233.001 242.132C235.749 240.172 244.682 231.146 247.084 228.403C247.682 227.725 248.08 226.291 247.409 225.686C246.134 224.546 239.447 221.567 239.447 221.567L234.575 226.496C234.575 226.496 230.945 237.409 230.594 240.167C230.457 241.207 232.162 242.731 233.001 242.132Z" fill="#1A1A1A"/>
<path d="M234.055 224.662L239.29 220.6L239.447 221.583L234.611 226.448L234.055 224.662Z" fill="#C2956D"/>
<path fill-rule="evenodd" clip-rule="evenodd" d="M247.414 140.28C248.044 140.601 251.647 142.44 251.647 142.44C251.647 142.44 252.465 142.382 253.294 144.047C253.609 144.678 254.416 145.855 254.81 146.443C256.215 148.555 258.733 155.812 258.733 155.812L267.717 154.314L270.277 154.351L272.149 153.51L272.69 150.699L272.008 139.96C272.008 139.96 272.574 137.585 273.13 137.033C273.917 136.255 276.172 135.656 277.263 135.504C278.679 135.31 285.015 135.898 285.015 135.898C285.015 135.898 284.905 130.04 284.423 128.274C284.05 126.908 281.837 121.307 277.064 118.796C275.674 118.065 270.812 116.626 266.039 117.036C265.132 117.114 262.446 117.613 262.446 117.613C262.446 117.613 262.588 122.132 261.927 123.435C261.471 124.339 259.897 126.057 258.885 126.104C253.63 126.356 252.035 122.684 252.035 122.684C252.035 122.684 250.766 122.989 250.367 123.157C249.35 123.593 247.278 124.207 246.397 124.88C244.954 125.994 244.131 126.735 242.112 130.544C241.713 131.301 239.751 137.763 239.751 137.763C239.751 137.763 244.614 138.861 247.414 140.28Z" fill="#5F54EE"/>
<path fill-rule="evenodd" clip-rule="evenodd" d="M244.65 158.338C242.773 157.219 240.286 156.189 238.157 156.667C236.961 156.935 235.299 157.497 234.239 158.144C233.526 158.58 231.564 160.65 231.659 160.928C231.853 161.501 231.9 161.407 232.125 161.428C232.959 161.522 236.468 160.146 236.515 160.235C236.547 160.293 234.973 160.671 234.223 161.391C233.751 161.843 234.349 162.794 234.575 162.83C235.351 162.957 236.93 162.788 237.438 162.725C240.554 162.342 241.86 162.809 244.697 162.531C245.815 162.421 244.509 159.867 244.65 158.338Z" fill="#F9D1AD"/>
<path fill-rule="evenodd" clip-rule="evenodd" d="M269.779 131.526C272.732 123.035 276.272 128.641 278.312 129.424C281.548 130.669 282.907 134.227 282.959 135.96C283.106 140.952 281.853 160.608 278.312 161.958C260.972 168.6 242.683 161.722 239.772 161.822C237.475 161.9 235.372 158.611 236.515 158.159C238.183 157.497 237.57 156.462 242.804 157.387C246.916 158.112 265.814 154.597 270.046 153.93C274.258 153.263 268.662 134.741 269.779 131.526Z" fill="#F9D1AD"/>
<path fill-rule="evenodd" clip-rule="evenodd" d="M267.964 136.045C267.964 136.045 270.801 132.787 276.628 132.151C278.37 131.962 285.351 133.46 285.351 133.46L277.908 122.442L268.41 121.901L267.57 132.687L267.964 136.045Z" fill="#5F54EE"/>
<path fill-rule="evenodd" clip-rule="evenodd" d="M240.344 137.916C240.344 137.916 242.888 138.515 243.738 138.73C244.509 138.924 246.628 139.755 247.362 140.065C248.705 140.632 251.647 142.439 251.647 142.439L251.039 143.154L250.504 143.827C250.504 143.827 247.267 141.499 245.862 140.816C244.44 140.122 239.966 138.725 239.966 138.725L240.344 137.916Z" fill="#1A1A1A"/>
<path fill-rule="evenodd" clip-rule="evenodd" d="M269.91 136.045C269.91 136.045 271.305 135.267 273.151 134.8C274.997 134.332 276.571 133.938 278.81 133.912C281.05 133.885 282.676 134.427 282.676 134.427C282.676 134.427 282.529 133.765 282.44 133.554C282.356 133.35 281.989 132.793 281.989 132.793C281.989 132.793 278.171 132.052 276.891 132.131C275.527 132.22 273.356 132.535 271.483 133.533C270.791 133.901 269.695 134.6 269.695 134.6L269.91 136.045Z" fill="#1A1A1A"/>
<path fill-rule="evenodd" clip-rule="evenodd" d="M233.843 145.433C233.843 145.433 233.843 145.433 234.089 145.524C234.335 145.615 234.335 145.615 234.335 145.615L234.334 145.618L234.331 145.625L234.32 145.654C234.311 145.679 234.297 145.714 234.281 145.758C234.247 145.844 234.201 145.962 234.149 146.088C234.05 146.328 233.914 146.638 233.803 146.792L233.802 146.792C233.487 147.226 233.036 147.713 232.671 148.086C232.487 148.274 232.323 148.435 232.204 148.549C232.145 148.606 232.097 148.652 232.064 148.683L232.026 148.719L232.016 148.729L232.012 148.732C232.012 148.732 232.012 148.732 231.834 148.54C231.655 148.347 231.655 148.347 231.655 148.347L231.658 148.344L231.668 148.336L231.704 148.301C231.736 148.271 231.783 148.227 231.841 148.171C231.956 148.059 232.117 147.901 232.297 147.718C232.658 147.349 233.086 146.885 233.378 146.483C233.446 146.39 233.559 146.143 233.664 145.888C233.714 145.766 233.759 145.652 233.791 145.568C233.808 145.527 233.82 145.492 233.829 145.469L233.84 145.442L233.842 145.435L233.843 145.433Z" fill="#C2956D"/>
<path fill-rule="evenodd" clip-rule="evenodd" d="M233.828 145.778C233.828 145.778 233.828 145.778 234.047 145.634C234.266 145.49 234.266 145.49 234.266 145.49L234.268 145.492L234.271 145.498L234.285 145.519C234.297 145.538 234.314 145.565 234.335 145.597C234.376 145.662 234.432 145.752 234.49 145.849C234.548 145.946 234.61 146.053 234.662 146.153C234.711 146.247 234.761 146.352 234.787 146.439L234.787 146.442C234.904 146.863 234.976 147.391 235.02 147.805C235.042 148.014 235.057 148.198 235.066 148.329C235.071 148.395 235.074 148.448 235.076 148.484L235.079 148.527L235.08 148.538L235.08 148.542L234.818 148.555C234.556 148.569 234.556 148.569 234.556 148.569L234.556 148.566L234.555 148.556L234.553 148.516C234.551 148.482 234.548 148.431 234.543 148.367C234.534 148.24 234.519 148.063 234.498 147.861C234.455 147.453 234.386 146.961 234.282 146.583C234.273 146.552 234.245 146.488 234.197 146.397C234.152 146.31 234.096 146.212 234.04 146.119C233.985 146.027 233.932 145.941 233.892 145.879C233.872 145.847 233.856 145.822 233.845 145.805L233.832 145.785L233.829 145.78L233.828 145.778Z" fill="#C2956D"/>
<path fill-rule="evenodd" clip-rule="evenodd" d="M270.613 153.924C270.613 153.924 270.613 153.924 270.849 153.809L271.084 153.694L271.086 153.697L271.09 153.705L271.105 153.737C271.118 153.764 271.137 153.804 271.16 153.852C271.205 153.948 271.266 154.081 271.329 154.225C271.392 154.368 271.458 154.525 271.512 154.67C271.565 154.809 271.612 154.953 271.632 155.067C271.74 155.675 271.785 156.436 271.803 157.037C271.812 157.34 271.815 157.605 271.815 157.795C271.816 157.89 271.815 157.966 271.815 158.019C271.814 158.045 271.814 158.065 271.814 158.079L271.814 158.095L271.814 158.101C271.814 158.101 271.814 158.101 271.552 158.096L271.289 158.092L271.289 158.087L271.29 158.072C271.29 158.059 271.29 158.04 271.29 158.014C271.291 157.963 271.291 157.889 271.291 157.796C271.291 157.61 271.288 157.35 271.279 157.054C271.261 156.457 271.216 155.727 271.115 155.158L271.114 155.155C271.105 155.096 271.073 154.992 271.021 154.854C270.972 154.722 270.91 154.575 270.849 154.436C270.788 154.298 270.729 154.169 270.685 154.076C270.663 154.029 270.645 153.991 270.633 153.965L270.618 153.934L270.614 153.927L270.613 153.924Z" fill="#C2956D"/>
<path fill-rule="evenodd" clip-rule="evenodd" d="M270.863 154.189C270.863 154.189 270.863 154.189 270.911 153.93C270.96 153.672 270.96 153.672 270.96 153.672L270.963 153.673L270.97 153.674L270.999 153.68C271.024 153.684 271.06 153.691 271.103 153.7C271.19 153.718 271.309 153.743 271.436 153.772C271.563 153.801 271.7 153.835 271.823 153.871C271.94 153.905 272.064 153.946 272.152 153.993C272.595 154.229 273.091 154.59 273.469 154.885C273.66 155.034 273.823 155.168 273.94 155.266C273.998 155.314 274.044 155.354 274.076 155.381L274.113 155.413L274.123 155.421L274.126 155.424C274.126 155.424 274.126 155.424 273.954 155.622C273.781 155.82 273.781 155.82 273.781 155.82L273.78 155.819L273.778 155.818L273.77 155.81L273.735 155.78C273.705 155.754 273.66 155.716 273.603 155.669C273.491 155.575 273.332 155.444 273.147 155.3C272.774 155.009 272.307 154.671 271.905 154.456C271.87 154.437 271.792 154.409 271.677 154.375C271.567 154.344 271.441 154.312 271.319 154.284C271.198 154.256 271.083 154.232 270.999 154.215C270.957 154.207 270.923 154.2 270.9 154.195L270.872 154.19L270.865 154.189L270.863 154.189Z" fill="#C2956D"/>
<path fill-rule="evenodd" clip-rule="evenodd" d="M269.91 136.045C269.91 136.045 267.859 142.429 267.125 144.536C266.857 145.303 266.443 146.916 265.992 147.594C265.609 148.166 264.633 149.275 263.972 149.469C262.976 149.764 260.789 149.243 259.887 148.728C258.79 148.108 257.406 145.881 256.64 144.882C255.712 143.674 251.673 141.903 251.647 142.439C251.631 142.76 253.205 147.925 253.561 148.665C254.359 150.315 256.965 156.09 256.965 156.09C256.965 156.09 269.847 154.75 270.854 153.531C273.461 150.363 269.91 136.045 269.91 136.045Z" fill="#5F54EE"/>
<path fill-rule="evenodd" clip-rule="evenodd" d="M259.541 130.291C259.525 130.255 259.525 130.212 259.535 130.176C259.567 130.081 259.635 130.06 259.693 130.055C259.719 130.055 259.808 130.05 259.861 130.149C259.861 130.155 259.882 130.202 259.903 130.281C260.06 130.864 260.82 133.901 260.988 134.51C261.014 134.605 260.957 134.7 260.868 134.726C260.773 134.752 260.679 134.694 260.653 134.605C260.485 133.995 259.724 130.959 259.567 130.375C259.556 130.333 259.546 130.302 259.541 130.291ZM259.729 130.396C259.782 130.391 259.845 130.365 259.871 130.276C259.85 130.344 259.792 130.386 259.729 130.396Z" fill="white"/>
<path fill-rule="evenodd" clip-rule="evenodd" d="M261.366 137.111C261.35 137.074 261.35 137.032 261.366 136.996C261.403 136.901 261.471 136.88 261.528 136.88C261.555 136.88 261.644 136.88 261.691 136.985C261.691 136.99 261.707 137.038 261.722 137.116C261.848 137.705 262.467 140.773 262.604 141.393C262.625 141.488 262.567 141.583 262.473 141.604C262.378 141.625 262.284 141.567 262.263 141.472C262.126 140.852 261.507 137.784 261.382 137.195C261.376 137.159 261.366 137.122 261.366 137.111ZM261.544 137.232C261.597 137.227 261.66 137.206 261.691 137.122C261.67 137.18 261.612 137.222 261.544 137.232Z" fill="white"/>
<path fill-rule="evenodd" clip-rule="evenodd" d="M262.614 143.148C262.598 143.112 262.598 143.07 262.614 143.033C262.651 142.938 262.719 142.917 262.777 142.917C262.803 142.917 262.892 142.917 262.939 143.022C262.939 143.027 262.955 143.075 262.971 143.154C263.097 143.742 263.716 146.81 263.852 147.43C263.873 147.525 263.815 147.62 263.721 147.641C263.626 147.662 263.532 147.604 263.511 147.509C263.375 146.889 262.756 143.821 262.63 143.232C262.625 143.196 262.619 143.159 262.614 143.148ZM262.798 143.269C262.85 143.264 262.913 143.243 262.945 143.159C262.918 143.217 262.861 143.264 262.798 143.269Z" fill="white"/>
<path fill-rule="evenodd" clip-rule="evenodd" d="M261.193 136.013C261.287 136.034 261.382 135.976 261.403 135.882C261.424 135.787 261.366 135.693 261.272 135.672C261.177 135.651 261.083 135.708 261.062 135.803C261.041 135.897 261.098 135.992 261.193 136.013Z" fill="white"/>
<path fill-rule="evenodd" clip-rule="evenodd" d="M262.562 142.549C262.656 142.57 262.751 142.512 262.772 142.418C262.793 142.323 262.735 142.229 262.641 142.208C262.546 142.187 262.452 142.245 262.431 142.339C262.41 142.434 262.467 142.528 262.562 142.549Z" fill="white"/>
<path fill-rule="evenodd" clip-rule="evenodd" d="M263.889 148.833C263.983 148.854 264.078 148.796 264.099 148.702C264.12 148.607 264.062 148.513 263.967 148.492C263.873 148.471 263.778 148.529 263.757 148.623C263.736 148.718 263.794 148.812 263.889 148.833Z" fill="white"/>
<path fill-rule="evenodd" clip-rule="evenodd" d="M254.322 131.705C255.937 130.749 257.39 129.383 258.287 128.027C258.439 127.796 258.665 126.572 259.032 127.013C260.013 128.211 256.273 132.136 254.579 132.125C254.416 132.125 254.054 131.736 254.054 131.736" fill="#095AB5"/>
<path fill-rule="evenodd" clip-rule="evenodd" d="M258.854 126.971C258.219 126.54 259.74 128.269 259.766 128.295C260.175 128.689 260.647 129.031 261.146 129.299C262.703 130.15 264.471 130.176 266.16 129.819C266.527 129.74 266.899 129.162 266.883 129.162C266.637 129.151 266.464 129.393 266.411 129.393C265.772 129.356 265.168 129.262 264.549 129.078C263.626 128.799 262.63 128.742 261.77 128.3C261.308 128.064 260.852 127.859 260.396 127.612C260.144 127.475 259.887 127.354 259.614 127.276" fill="#095AB5"/>
<path fill-rule="evenodd" clip-rule="evenodd" d="M251.678 124.853C251.773 125.395 250.876 127.05 254.359 131.537C254.364 131.542 254.385 131.537 254.401 131.537C254.443 131.532 254.495 131.516 254.553 131.49C254.757 131.405 255.03 131.222 255.345 130.969C256.095 130.37 257.054 129.398 257.747 128.432C258.198 127.801 258.539 127.176 258.628 126.661C258.644 126.572 258.717 126.519 258.796 126.545C258.874 126.572 258.922 126.666 258.906 126.755C258.812 127.312 258.455 127.99 257.967 128.668C257.254 129.661 256.278 130.654 255.512 131.264C255.119 131.579 254.778 131.789 254.553 131.852C254.416 131.894 254.311 131.878 254.243 131.831C253.782 131.526 253.672 131.195 253.194 130.523C251.983 128.826 251.825 127.848 251.526 126.871C251.102 125.473 251.4 124.796 251.395 124.785C251.395 124.79 251.626 124.538 251.678 124.853Z" fill="white"/>
<path fill-rule="evenodd" clip-rule="evenodd" d="M266.611 129.052C266.621 129.031 266.648 128.989 266.658 128.947C266.71 128.794 266.758 128.563 266.794 128.284C266.941 127.15 266.931 125.211 266.595 124.065C266.113 122.41 265.216 119.773 264.418 119.016C264.35 118.948 264.345 118.837 264.413 118.769C264.481 118.701 264.592 118.696 264.66 118.764C265.488 119.547 266.433 122.263 266.936 123.971C267.335 125.326 267.293 127.754 267.072 128.784C267.03 128.983 266.978 129.136 266.926 129.23C266.889 129.293 266.842 129.335 266.8 129.362C266.758 129.388 266.616 129.419 266.396 129.425C265.688 129.451 264.004 129.346 262.74 128.936C260.695 128.269 259.016 127.113 258.707 126.85C258.66 126.808 258.633 126.777 258.623 126.761C258.591 126.713 258.591 126.671 258.597 126.645C258.607 126.551 258.691 126.477 258.785 126.488C258.838 126.493 258.885 126.524 258.917 126.566C258.922 126.572 258.927 126.577 258.938 126.582C259.242 126.84 260.873 127.959 262.855 128.605C263.925 128.952 265.305 129.073 266.097 129.083C266.317 129.078 266.543 129.057 266.611 129.052Z" fill="white"/>
</svg>
