<svg width="12" height="12" viewBox="0 0 12 12" fill="none" xmlns="http://www.w3.org/2000/svg">
<circle cx="5.78941" cy="3.63902" r="2.38902" stroke="#9A9A9A" stroke-width="0.75" stroke-linecap="round" stroke-linejoin="round"/>
<path fill-rule="evenodd" clip-rule="evenodd" d="M2.00001 9.35069C1.99937 9.18274 2.03693 9.01685 2.10985 8.86556C2.33868 8.40789 2.98399 8.16533 3.51946 8.05549C3.90564 7.97308 4.29715 7.91802 4.69108 7.89073C5.42042 7.82667 6.15397 7.82667 6.8833 7.89073C7.2772 7.91834 7.66869 7.97339 8.05493 8.05549C8.5904 8.16533 9.23571 8.38501 9.46454 8.86556C9.61119 9.17396 9.61119 9.53199 9.46454 9.84039C9.23571 10.3209 8.5904 10.5406 8.05493 10.6459C7.6692 10.7317 7.27755 10.7883 6.8833 10.8152C6.28968 10.8655 5.69329 10.8747 5.09841 10.8427C4.96111 10.8427 4.82838 10.8427 4.69108 10.8152C4.29832 10.7886 3.90816 10.732 3.52404 10.6459C2.98399 10.5406 2.34326 10.3209 2.10985 9.84039C2.0373 9.68734 1.99978 9.52005 2.00001 9.35069Z" stroke="#9A9A9A" stroke-width="0.75" stroke-linecap="round" stroke-linejoin="round"/>
</svg>
